<svg xmlns="http://www.w3.org/2000/svg" width="180" height="35" viewBox="0 0 180 35">
    <g fill="none">
        <path fill="#074386" d="M13.385 16.204s-.845-2.662-1.39-5.112c-.257-1.165-1.024-4.491-1.024-4.491s-.734 2.994-1.212 4.89c-.477 1.83-.802 3.029-1.356 4.713h4.982zm.512-15.183l8.019 25.441h-5.494L14.63 20.44H7.166l-1.792 6.022H.026L8.369 1.021h5.528zM35.343 12.3c-1.868-.953-3.225-1.353-4.615-1.353-1.425 0-2.38.732-2.38 1.83 0 .943.623 1.462 2.346 1.896l2.269.587c2.303.587 3.071 1.276 3.737 2.118.7.876 1.023 1.93 1.023 3.173 0 3.87-3.224 6.498-8.019 6.498-2.303 0-4.828-.731-7.575-2.152l1.757-3.572c1.502.91 4.104 2.118 6.22 2.118 1.39 0 2.49-.91 2.49-2.118 0-1.276-.913-1.94-2.892-2.297l-2.2-.4c-1.246-.22-2.782-1.097-3.439-1.897-.656-.8-1.057-2.152-1.057-3.36 0-3.649 2.892-6.098 7.242-6.098 3.003 0 4.982.91 6.697 1.752L35.343 12.3zM51.193 12.3c-1.868-.953-3.224-1.353-4.615-1.353-1.424 0-2.38.732-2.38 1.83 0 .943.623 1.462 2.346 1.896l2.27.587c2.303.587 3.07 1.276 3.736 2.118.7.876 1.023 1.93 1.023 3.173 0 3.87-3.224 6.498-8.018 6.498-2.304 0-4.829-.731-7.576-2.152l1.757-3.572c1.502.91 4.104 2.118 6.22 2.118 1.39 0 2.49-.91 2.49-2.118 0-1.276-.912-1.94-2.891-2.297l-2.201-.4c-1.246-.22-2.781-1.097-3.438-1.897s-1.058-2.152-1.058-3.36c0-3.649 2.892-6.098 7.251-6.098 3.003 0 4.973.91 6.697 1.752L51.193 12.3z"/>
        <path fill="#999" d="M71.659 6.022c-1.28-.952-2.636-1.42-4.06-1.42-1.724 0-3.405.842-4.317 2.186-.99 1.463-1.425 3.58-1.425 6.533 0 3.47.29 5.4 1.058 6.787 1.023 1.863 2.704 2.85 4.905 2.85 1.501 0 2.858-.434 4.36-1.642l2.345 3.216c-2.013 1.641-4.171 2.373-7.063 2.373-3.515 0-6.22-1.132-8.31-3.505-2.047-2.296-3.07-5.367-3.07-9.084 0-3.173.545-5.69 1.723-7.885C59.784 2.747 63.444.553 67.538.553c2.526 0 5.05.8 6.441 2.007l-2.32 3.462z"/>
        <path fill="#999" d="M79.746 12.92c-.333.987-.512 2.297-.512 4.16 0 2.152.222 3.76.623 4.713.435 1.02 1.535 1.53 2.49 1.53 2.125 0 3.038-1.896 3.038-6.31 0-2.519-.333-4.16-.99-5.002-.477-.621-1.245-.987-2.124-.987-1.169 0-2.124.723-2.525 1.897m8.82-2.705c1.502 1.752 2.16 3.794 2.16 6.822 0 3.215-.735 5.401-2.347 7.23-1.424 1.608-3.293 2.594-6.185 2.594-5.084 0-8.42-3.793-8.42-9.671 0-5.878 3.37-9.782 8.42-9.782 2.679 0 4.76.91 6.373 2.807M96.074 7.443c.333.51.478.953.657 1.897 1.28-1.242 2.858-1.897 4.572-1.897 1.536 0 2.815.51 3.805 1.53.256.256.512.588.734.911 1.723-1.752 3.258-2.45 5.306-2.45 1.467 0 2.858.443 3.694 1.166 1.058.91 1.39 2.007 1.39 4.559v13.286h-4.76V14.112c0-2.229-.256-2.663-1.536-2.663-.912 0-2.2.621-3.258 1.574v13.431h-4.65V14.299c0-2.33-.332-2.884-1.68-2.884-.913 0-2.158.477-3.225 1.42v13.619H92.33V13.423c0-2.697-.18-3.87-.7-4.78l4.445-1.2zM126.631 22.992c2.414 0 3.37-1.642 3.37-5.912 0-1.786-.145-3.215-.478-4.125-.367-1.02-1.134-1.574-2.346-1.574-1.211 0-2.38.51-3.259 1.42v9.085c.666.562 1.732 1.106 2.713 1.106m-3.404-15.583c.18.655.29 1.165.333 1.752.845-1.02 2.713-1.752 4.615-1.752 1.314 0 2.67.442 3.694 1.131 2.013 1.353 3.48 3.76 3.48 8.064 0 4.015-.656 6.056-2.601 8.14-1.28 1.353-2.969 2.118-5.016 2.118-1.468 0-2.858-.366-3.916-.986.068.442.068.986.068 1.53v5.844l-4.717 1.242V12.887c0-2.45-.034-3.139-.29-4.713l4.35-.765zM146.218 18.28c-3.404 0-4.573.62-4.573 2.85 0 1.462.913 2.449 2.159 2.449.913 0 1.834-.476 2.559-1.276l.077-4.015h-.222v-.008zm-6.373-9.816c1.835-.766 3.404-1.098 5.128-1.098 3.147 0 5.306 1.166 6.04 3.25.255.765.366 1.352.332 3.36l-.11 6.277v.332c0 2.007.332 2.773 1.756 3.836l-2.601 2.994c-1.135-.476-2.159-1.318-2.636-2.262-.367.365-.768.731-1.135.986-.913.655-2.235 1.021-3.77 1.021-4.172 0-6.441-2.118-6.441-5.844 0-4.38 3.037-6.422 9-6.422.366 0 .7 0 1.1.034v-.765c0-2.084-.4-2.773-2.192-2.773-1.579 0-3.404.765-5.417 2.118l-2.09-3.505c.99-.63 1.723-.995 3.036-1.54M164.662 12.589c-.99-.91-2.048-1.463-2.96-1.463-2.202 0-3.183 1.897-3.183 6.277 0 2.45.333 3.905.947 4.713.512.655 1.357 1.055 2.201 1.055 1.135 0 2.159-.477 3.37-1.531l.29-.256 2.235 2.96c-.734.732-1.058.987-1.723 1.387-1.314.765-2.781 1.165-4.573 1.165-5.16 0-8.164-3.572-8.164-9.637 0-4.304 1.647-7.154 3.848-8.65 1.245-.843 3.07-1.387 4.65-1.387 1.245 0 2.6.289 3.625.842.7.366 1.023.62 1.834 1.318l-2.397 3.207zM178.166 11.126h-3.148v9.382c0 2.373.435 2.994 2.124 2.994.435 0 .879-.11 1.758-.365l.622 2.917c-1.424.587-2.713.842-3.992.842-2.491 0-4.462-1.097-5.05-2.739-.29-.8-.333-1.165-.333-2.883V11.126h-1.868v-3.36h1.868c0-1.829 0-3.028.18-4.415l4.981-1.241c-.18 1.718-.29 3.76-.29 5.656h4.393l-1.245 3.36z"/>
    </g>
</svg>
