<svg id="Ebene_1" data-name="Ebene 1" xmlns="http://www.w3.org/2000/svg" xmlns:xlink="http://www.w3.org/1999/xlink" viewBox="0 0 515.88 165.84"><defs><style>.cls-1{fill:none;}.cls-2{fill:#000206;}.cls-3{fill:#fd0;}.cls-4{fill:#00a8c5;}.cls-5{fill:#e61f42;}.cls-6{fill:#1a1a18;}.cls-7{clip-path:url(#clip-path);}.cls-8{fill:#020204;}.cls-9{fill:#fff;}</style><clipPath id="clip-path" transform="translate(-0.43 1.13)"><rect class="cls-1" x="471.61" y="122.31" width="44.7" height="27.39"></rect></clipPath></defs><title>FF_Logo_Farbe_Schwarz_var3</title><polygon class="cls-2" points="193.69 79.29 172.66 79.29 172.66 1.41 209.84 1.41 209.84 19.72 193.69 19.72 193.69 31.07 208.72 31.07 208.72 48.67 193.69 48.67 193.69 79.29"></polygon><rect class="cls-2" x="216.75" y="1.41" width="21.03" height="77.88"></rect><path class="cls-2" d="M245.67,78.16V.28h20.08l10.54,27.34q.85,2.41,1.94,5.55c.72,2.08,1.52,4.49,2.4,7.21l2.17,6.86Q281.63,37.1,281,29.89t-.6-12.11V.28H300.5V78.16H280.43l-10.6-28.65q-1.66-4.59-3-8.6t-2.34-7.64q.64,8.22.95,14.32t.31,10.7V78.16Z" transform="translate(-0.43 1.13)"></path><path class="cls-2" d="M338.51,51.58l-1.36-9.08a9.4,9.4,0,0,1-.2-1.36q-.1-1.11-1.06-8.78c-.07-.57-.15-1.35-.25-2.34s-.24-2.25-.41-3.76l-.65-7.37c-.07.71-.16,1.5-.28,2.37s-.25,1.84-.38,2.88c-.23,2.08-.4,3.53-.5,4.34s-.17,1.29-.21,1.46l-1.46,9.43-2.12,12.21Zm25.78,26.58H342.55L341,68.27H326.81l-1.72,9.89H303.35L322.07.28h25.72Z" transform="translate(-0.43 1.13)"></path><path class="cls-2" d="M367.15,78.16V.28h20.07l10.55,27.34q.86,2.41,1.94,5.55c.72,2.08,1.52,4.49,2.39,7.21l2.17,6.86q-1.15-10.14-1.76-17.35t-.61-12.11V.28H422V78.16H401.9L391.31,49.51q-1.67-4.59-3-8.6T386,33.27q.66,8.22,1,14.32t.3,10.7V78.16Z" transform="translate(-0.43 1.13)"></path><path class="cls-2" d="M472.08,54.2l-1.21,22.5a34.15,34.15,0,0,1-12.56,2.82,28.86,28.86,0,0,1-22-9.58q-10-10.74-10-30.42,0-18.41,9.38-29.55t25.07-11.1A30.61,30.61,0,0,1,471.18.78V23q-4.69-4.7-9.64-4.69a11.46,11.46,0,0,0-10.09,5.5q-3.63,5.55-3.63,15.33a36.17,36.17,0,0,0,.91,8.47,20.14,20.14,0,0,0,2.6,6.31,11.71,11.71,0,0,0,4.16,3.93,11.5,11.5,0,0,0,5.65,1.37q5.44,0,10.94-5" transform="translate(-0.43 1.13)"></path><polygon class="cls-2" points="476.63 79.29 476.63 1.41 515.72 1.41 515.72 19.72 497.66 19.72 497.66 31.07 513.85 31.07 513.85 48.67 497.66 48.67 497.66 60.58 515.72 60.58 515.72 79.29 476.63 79.29"></polygon><path class="cls-3" d="M.43.27V164.71H164.87V.27Z" transform="translate(-0.43 1.13)"></path><polygon class="cls-4" points="118.94 157.61 86.3 157.61 86.3 9.62 155.66 9.62 155.65 42.24 118.94 42.26 118.94 157.61"></polygon><polygon class="cls-4" points="127.1 112.18 127.1 55.06 156.5 83.62 127.1 112.18"></polygon><polygon class="cls-5" points="41.45 157.61 8.79 157.61 8.79 9.62 78.14 9.62 78.14 42.26 41.45 42.26 41.45 157.61"></polygon><polygon class="cls-5" points="49.59 112.18 49.59 55.06 78.99 83.62 49.59 112.18"></polygon><polygon class="cls-2" points="193.69 165.83 172.66 165.83 172.66 87.95 209.84 87.95 209.84 106.26 193.69 106.26 193.69 117.61 208.73 117.61 208.73 135.21 193.69 135.21 193.69 165.83"></polygon><path class="cls-2" d="M286.08,164.7H265.8L261,137.41q-1.41-7.92-2.12-13.72c-.23-1.92-.43-3.52-.6-4.79s-.29-2.26-.35-2.93c-.17,1.38-.43,4-.76,7.72-.17,1.92-.37,3.93-.61,6.05s-.52,4.36-.85,6.71l-4,28.25H231.2L213.85,86.82h20.78l3.43,21.43q2,12.82,2.73,20.13l.7,7.11.66-6.1q1-10.69,2.72-20.33l3.94-22.24h18.1l3.54,18.71q2.52,13.06,4.38,30.92.56-8,1.21-14.22T277.51,111l3.83-24.16h20.53Z" transform="translate(-0.43 1.13)"></path><path class="cls-2" d="M326.34,145.88q11.3-.56,11.29-19.47,0-9.33-2.87-14.73T327,106.24h-.65Zm-21,18.82V86.82h18.16q15.59,0,24.26,8.37,11.4,10.95,11.4,30.62,0,19.37-9.63,29.91-8.22,9-24.52,9Z" transform="translate(-0.43 1.13)"></path><path class="cls-6" d="M398.06,100.48a15.3,15.3,0,0,1,3-.27,5.26,5.26,0,0,1,3.51.93,2.67,2.67,0,0,1,1.07,2.26,3,3,0,0,1-2.17,2.81v0a3.29,3.29,0,0,1,2.64,3.21,3.45,3.45,0,0,1-1.08,2.56c-.9.82-2.34,1.2-4.43,1.2a20.4,20.4,0,0,1-2.56-.15Zm1.65,5.24h1.5c1.75,0,2.77-.91,2.77-2.15,0-1.5-1.14-2.09-2.81-2.09a6.74,6.74,0,0,0-1.46.12Zm0,6.13a8.41,8.41,0,0,0,1.39.08c1.71,0,3.28-.63,3.28-2.49s-1.5-2.47-3.3-2.47h-1.37Z" transform="translate(-0.43 1.13)"></path><path class="cls-6" d="M410.42,109.08l-1.33,4h-1.71l4.35-12.81h2l4.37,12.81h-1.77l-1.37-4Zm4.2-1.29-1.25-3.69c-.29-.83-.48-1.59-.67-2.33h0c-.19.76-.39,1.54-.64,2.31l-1.25,3.71Z" transform="translate(-0.43 1.13)"></path><path class="cls-6" d="M428.64,112.69a8.25,8.25,0,0,1-3.38.61c-3.61,0-6.33-2.28-6.33-6.48a6.37,6.37,0,0,1,6.69-6.72,6.83,6.83,0,0,1,3,.57l-.4,1.34a6.09,6.09,0,0,0-2.58-.53c-3,0-5,1.92-5,5.28,0,3.14,1.81,5.15,4.92,5.15a6.69,6.69,0,0,0,2.7-.53Z" transform="translate(-0.43 1.13)"></path><path class="cls-6" d="M430.71,100.3h1.65v6.18h.06c.34-.5.69-1,1-1.37l3.91-4.81h2.05l-4.63,5.44,5,7.37H437.8l-4.22-6.29-1.22,1.4v4.89h-1.65Z" transform="translate(-0.43 1.13)"></path><path class="cls-6" d="M447.64,107.1h-5v4.62h5.55v1.39H441V100.3h6.91v1.39h-5.26v4h5Z" transform="translate(-0.43 1.13)"></path><path class="cls-6" d="M450.35,100.48a22.72,22.72,0,0,1,3.52-.27,7.34,7.34,0,0,1,5.18,1.59,5.91,5.91,0,0,1,1.81,4.6,6.77,6.77,0,0,1-1.85,5,7.9,7.9,0,0,1-5.66,1.84,28.11,28.11,0,0,1-3-.15ZM452,111.8a11.15,11.15,0,0,0,1.67.09c3.53,0,5.45-2,5.45-5.43,0-3-1.69-4.94-5.19-4.94a9.67,9.67,0,0,0-1.93.17Z" transform="translate(-0.43 1.13)"></path><path class="cls-6" d="M467,100.48a15.3,15.3,0,0,1,3-.27,5.25,5.25,0,0,1,3.51.93,2.67,2.67,0,0,1,1.07,2.26,3,3,0,0,1-2.17,2.81v0a3.29,3.29,0,0,1,2.64,3.21A3.42,3.42,0,0,1,474,112c-.89.82-2.34,1.2-4.42,1.2a20.59,20.59,0,0,1-2.57-.15Zm1.65,5.24h1.5c1.75,0,2.78-.91,2.78-2.15,0-1.5-1.14-2.09-2.81-2.09a6.86,6.86,0,0,0-1.47.12Zm0,6.13a8.48,8.48,0,0,0,1.39.08c1.71,0,3.29-.63,3.29-2.49s-1.5-2.47-3.31-2.47h-1.37Z" transform="translate(-0.43 1.13)"></path><path class="cls-6" d="M479.89,113.11v-5.44l-4-7.37h1.88l1.8,3.54c.49,1,.87,1.74,1.27,2.64h0c.36-.84.8-1.67,1.29-2.64L484,100.3h1.88l-4.3,7.36v5.45Z" transform="translate(-0.43 1.13)"></path><g id="Bildmaterial_1" data-name="Bildmaterial 1"><g class="cls-7"><g class="cls-7"><path class="cls-8" d="M516.31,140.37V124.52a2.16,2.16,0,0,0-2.2-2.21h-40.3a2.16,2.16,0,0,0-2.2,2.21v15.85a2.15,2.15,0,0,0,2.2,2.2H507v7.13l5.43-7.13h1.73a2.15,2.15,0,0,0,2.2-2.2" transform="translate(-0.43 1.13)"></path><path class="cls-9" d="M484.89,132.28a3.56,3.56,0,0,1-7.12,0,3.47,3.47,0,0,1,1-2.52,3.57,3.57,0,0,1,6.08,2.52m.63,4.19a5.9,5.9,0,1,0-4.19,1.75,5.73,5.73,0,0,0,4.19-1.75m12.92,1.65h2.46V126.44l-6,7.38-6-7.38v11.68h2.47V133.2l3.52,4.72,3.53-4.72Zm8.81-6,5.19-5.69H502.33v2.34h4.79l-3.29,3.35,5.29,6h3.41Z" transform="translate(-0.43 1.13)"></path></g></g></g><polygon class="cls-6" points="418.26 130.76 418.26 131.54 420.29 131.54 420.29 144.4 418.32 144.4 418.32 145.19 426.57 145.19 426.57 144.4 424.57 144.4 424.57 130.76 418.26 130.76"></polygon><polygon class="cls-6" points="452 122.45 452 123.23 454.03 123.23 454.03 144.4 454.03 144.4 454.03 145.19 460.28 145.19 460.28 144.4 458.28 144.4 458.28 122.45 452 122.45"></polygon><path class="cls-6" d="M444.42,136.81c-4.09,0-6.73.82-6.73,3.94,0,2.85,2.12,3.61,4.34,3.61a3.86,3.86,0,0,0,3.88-2.15c.3,1.42,1.42,2.15,3.46,2.15,2.36,0,3.36-1.15,3.51-4.49l-.69-.06c-.22,2.43-.61,2.91-1.22,2.91s-.94-.42-.94-1.7v-6c0-4.4-1.66-5.73-5.88-5.73-3.46,0-5.79,1.24-5.79,3.61a2,2,0,0,0,2.12,2.21,2,2,0,0,0,2.18-2,3.42,3.42,0,0,0-.24-1.27h-.82a2.37,2.37,0,0,1-.09-.61c0-.82.85-1.18,1.91-1.18,1.85,0,2.37,1.24,2.37,4.55v2.21Zm-.85,6.25c-1,0-1.45-.61-1.45-2.4,0-2,.79-3.09,3-3.09h.7v2.52c0,1.87-1.12,3-2.22,3" transform="translate(-0.43 1.13)"></path><path class="cls-6" d="M420.18,124.68a2.44,2.44,0,0,0,4.88,0,2.12,2.12,0,0,0-2.4-2.3,2.22,2.22,0,0,0-2.48,2.3" transform="translate(-0.43 1.13)"></path><path class="cls-6" d="M410.54,130.62c2,0,2.46,1.67,2.46,6.22,0,4.76-.58,6.52-2.64,6.52s-3-1.85-3-3.61V134.9c0-2.61,1.64-4.28,3.21-4.28m-3.21-1h-6.25v.79h2V148.9H401v.79h10.31v-.79h-3.91v-6.27c.7,1.06,1.82,1.73,3.91,1.73,4,0,6.22-2.49,6.22-7.58s-2.13-7.46-5.61-7.46a4.79,4.79,0,0,0-4.55,2.61Z" transform="translate(-0.43 1.13)"></path><path class="cls-6" d="M393.35,136.81c-4.1,0-6.73.82-6.73,3.94,0,2.85,2.12,3.61,4.33,3.61a3.86,3.86,0,0,0,3.88-2.15c.31,1.42,1.43,2.15,3.46,2.15,2.37,0,3.37-1.15,3.52-4.49l-.7-.06c-.21,2.43-.61,2.91-1.21,2.91s-.94-.42-.94-1.7v-6c0-4.4-1.67-5.73-5.88-5.73-3.46,0-5.8,1.24-5.8,3.61a2,2,0,0,0,2.13,2.21,2,2,0,0,0,2.18-2,3.42,3.42,0,0,0-.24-1.27h-.82a2.37,2.37,0,0,1-.09-.61c0-.82.85-1.18,1.91-1.18,1.85,0,2.36,1.24,2.36,4.55v2.21Zm-.85,6.25c-1,0-1.46-.61-1.46-2.4,0-2,.79-3.09,3-3.09h.69v2.52c0,1.87-1.12,3-2.21,3" transform="translate(-0.43 1.13)"></path><path class="cls-6" d="M378,123.44c3,0,4.86,2.06,6,5.82h.67l-.25-6.43H384c-.15.4-.27.61-.73.61-1,0-2.73-.94-5.52-.94-5.88,0-10.16,3.82-10.16,11.07,0,7.49,3.89,10.79,10.07,10.79,3,0,4.88-.94,5.85-.94.43,0,.61.21.76.61h.46l.21-6.61h-.64c-1.24,3.88-3.27,6-6.15,6-3.85,0-5.73-3.46-5.73-10,0-7.33,2-9.94,5.57-9.94" transform="translate(-0.43 1.13)"></path><path class="cls-6" d="M433.38,140.36v-10h4.06v-.79h-4.06v-5l-4.31,1.09v3.91h-2v.79h2v10.15a8.63,8.63,0,0,0,.18,1.64c.3,1.42,1.42,2.15,3.46,2.15,2.36,0,3.36-1.15,3.51-4.49l-.69-.06c-.22,2.43-.61,2.91-1.22,2.91s-.94-.42-.94-1.69v-.66Z" transform="translate(-0.43 1.13)"></path></svg>