<?xml version="1.0" encoding="utf-8"?>
<!-- Generator: Adobe Illustrator 19.1.0, SVG Export Plug-In . SVG Version: 6.00 Build 0)  -->
<svg version="1.1" id="Layer_1" xmlns="http://www.w3.org/2000/svg" xmlns:xlink="http://www.w3.org/1999/xlink" x="0px" y="0px"
	 viewBox="-274 369 63 56" style="enable-background:new -274 369 63 56;" xml:space="preserve">
<style type="text/css">
	.st0{fill:#004A93;}
	.st1{fill:none;enable-background:new    ;}
	.st2{fill:#FFFFFF;}
</style>
<g>
	<g>
		<path class="st2" d="M-260.2,395.4l11.1-11.1c1-1,2.9-1,3.9,0c1.1,1.1,1.1,2.8,0,3.9l-9.1,9.1l9.1,9.1c0.5,0.5,0.8,1.2,0.8,2
			s-0.3,1.4-0.8,2c-0.5,0.5-1.2,0.8-2,0.8c-0.7,0-1.4-0.3-2-0.8l-11.1-11.1c-0.5-0.5-0.8-1.2-0.8-2S-260.7,395.9-260.2,395.4
			L-260.2,395.4z M-251.1,412.3c2.2,2.2,5.7,2.2,7.8,0c1-1,1.6-2.4,1.6-3.9s-0.6-2.9-1.6-3.9l-7.1-7.1l7.1-7.1c1-1,1.6-2.4,1.6-3.9
			c0-1.5-0.6-2.9-1.6-3.9c-1-1-2.4-1.6-3.9-1.6c-1.5,0-2.9,0.6-3.9,1.6l-11.1,11.1c-1,1-1.6,2.4-1.6,3.9c0,1.5,0.6,2.9,1.6,3.9
			L-251.1,412.3L-251.1,412.3z"/>
		<path class="st2" d="M-225.9,388.2l-9.1,9.1l9.1,9.1c0.5,0.5,0.8,1.2,0.8,2s-0.3,1.4-0.8,2c-0.5,0.5-1.2,0.8-2,0.8s-1.4-0.3-2-0.8
			l-11.1-11.1c-0.5-0.5-0.8-1.2-0.8-2s0.3-1.4,0.8-2l11.1-11.1c1-1,2.9-1,3.9,0C-224.8,385.4-224.8,387.1-225.9,388.2L-225.9,388.2z
			 M-222.3,386.3c0-1.5-0.6-2.9-1.6-3.9c-1-1-2.4-1.6-3.9-1.6c-1.5,0-2.9,0.6-3.9,1.6l-11.1,11.1c-1,1-1.6,2.4-1.6,3.9
			c0,1.5,0.6,2.9,1.6,3.9l11.1,11.1c2.2,2.2,5.7,2.2,7.8,0c1-1,1.6-2.4,1.6-3.9s-0.6-2.9-1.6-3.9l-7.1-7.1l7.1-7.1
			C-222.9,389.1-222.3,387.7-222.3,386.3L-222.3,386.3z"/>
	</g>
</g>
</svg>
