<?xml version="1.0" encoding="utf-8"?>
<!-- Generator: Adobe Illustrator 19.1.0, SVG Export Plug-In . SVG Version: 6.00 Build 0)  -->
<svg version="1.1" id="Layer_1" xmlns="http://www.w3.org/2000/svg" xmlns:xlink="http://www.w3.org/1999/xlink" x="0px" y="0px"
	 viewBox="-274 369 63 56" style="enable-background:new -274 369 63 56;" xml:space="preserve">
<style type="text/css">
	.st0{fill:#0179FF;}
	.st1{fill:none;enable-background:new    ;}
	.st2{fill:#FFFFFF;}
</style>
<g>
	<g>
		<path class="st2" d="M-223.9,399.3l-11.1,11.1c-1,1-2.9,1-3.9,0c-1.1-1.1-1.1-2.8,0-3.9l9.1-9.1l-9.1-9.1c-0.5-0.5-0.8-1.2-0.8-2
			s0.3-1.4,0.8-2c0.5-0.5,1.2-0.8,2-0.8s1.4,0.3,2,0.8l11.1,11.1c0.5,0.5,0.8,1.2,0.8,2S-223.4,398.7-223.9,399.3L-223.9,399.3z
			 M-233,382.4c-2.2-2.2-5.7-2.2-7.8,0c-1,1-1.6,2.4-1.6,3.9s0.6,2.9,1.6,3.9l7.1,7.1l-7.1,7.1c-1,1-1.6,2.4-1.6,3.9
			s0.6,2.9,1.6,3.9s2.4,1.6,3.9,1.6c1.5,0,2.9-0.6,3.9-1.6l11.1-11.1c1-1,1.6-2.4,1.6-3.9s-0.6-2.9-1.6-3.9L-233,382.4L-233,382.4z"
			/>
		<path class="st2" d="M-258.2,406.4l9.1-9.1l-9.1-9.1c-0.5-0.5-0.8-1.2-0.8-2s0.3-1.4,0.8-2c0.5-0.5,1.2-0.8,2-0.8s1.4,0.3,2,0.8
			l11.1,11.1c0.5,0.5,0.8,1.2,0.8,2s-0.3,1.4-0.8,2l-11.1,11.1c-1,1-2.9,1-3.9,0C-259.3,409.2-259.3,407.5-258.2,406.4L-258.2,406.4
			z M-261.8,408.4c0,1.5,0.6,2.9,1.6,3.9s2.4,1.6,3.9,1.6s2.9-0.6,3.9-1.6l11.1-11.1c1-1,1.6-2.4,1.6-3.9s-0.6-2.9-1.6-3.9
			l-11.1-11.1c-2.2-2.2-5.7-2.2-7.8,0c-1,1-1.6,2.4-1.6,3.9s0.6,2.9,1.6,3.9l7.1,7.1l-7.1,7.1C-261.2,405.5-261.8,406.9-261.8,408.4
			L-261.8,408.4z"/>
	</g>
</g>
</svg>
