<svg id="Layer_1" data-name="Layer 1" xmlns="http://www.w3.org/2000/svg" viewBox="0 0 335.5 83.5"><defs><style>.cls-1{fill:#ee171d;}.cls-2{fill:#2c2b2b;}</style></defs><title>logo-1</title><path class="cls-1" d="M0,50.73V48.65H24V45.52H0V34a5.07,5.07,0,0,1,.41-2,5,5,0,0,1,1.12-1.66,5.12,5.12,0,0,1,1.66-1.12,5.07,5.07,0,0,1,2-.41H26.13a5.2,5.2,0,0,1,2,.41,5,5,0,0,1,1.66,1.12A5.26,5.26,0,0,1,30.94,32a5.06,5.06,0,0,1,.4,2V36.1h-24v3.13H31.34v11.5a5.06,5.06,0,0,1-.4,2,5.26,5.26,0,0,1-1.11,1.66,4.87,4.87,0,0,1-1.66,1.12,5.2,5.2,0,0,1-2,.41H5.21a5.07,5.07,0,0,1-2-.41,5,5,0,0,1-1.66-1.12A5,5,0,0,1,.41,52.75a5.07,5.07,0,0,1-.41-2M10.42,20.44a4.91,4.91,0,0,1,.42-2A5.46,5.46,0,0,1,12,16.76a5,5,0,0,1,1.66-1.12,5.2,5.2,0,0,1,2-.41,5.07,5.07,0,0,1,2,.41,5.23,5.23,0,0,1,1.66,1.12,5.12,5.12,0,0,1,1.12,1.66,5.21,5.21,0,0,1,0,4,5.23,5.23,0,0,1-1.12,1.66,5.4,5.4,0,0,1-1.66,1.12,5.06,5.06,0,0,1-2,.4A5.14,5.14,0,0,1,12,24.13a5.58,5.58,0,0,1-1.12-1.66,5,5,0,0,1-.42-2"/><path class="cls-2" d="M314.19,55.37h9.26V53.14l-2.89-.49V41.41a5.37,5.37,0,0,1,1.85-2,5,5,0,0,1,2.67-.72,4,4,0,0,1,3.05,1.06,5.17,5.17,0,0,1,1,3.59v9.3l-2.89.49v2.23h9.26V53.14l-2.88-.49V43.28q0-3.78-1.7-5.6a6.24,6.24,0,0,0-4.8-1.81,6.38,6.38,0,0,0-3.28.84,7,7,0,0,0-2.4,2.36l-.25-2.85h-6v2.25l2.88.49V52.65l-2.88.49v2.23ZM304,55.74a10.75,10.75,0,0,0,4.06-.68,8.34,8.34,0,0,0,2.72-1.67l-1.36-2.26a7,7,0,0,1-2.32,1.38A8.61,8.61,0,0,1,304,53a4.44,4.44,0,0,1-3.77-1.78,7.52,7.52,0,0,1-1.4-4.54l0-.09h12.43V44.43a9.28,9.28,0,0,0-2-6.23,7.26,7.26,0,0,0-5.85-2.33,7.52,7.52,0,0,0-5.77,2.71,9.83,9.83,0,0,0-2.43,6.81v.78a10.06,10.06,0,0,0,2.36,6.91A8.08,8.08,0,0,0,304,55.74m-.53-17.13A3.93,3.93,0,0,1,306.69,40a5.34,5.34,0,0,1,1.09,3.43v.46H299l0-.08a7,7,0,0,1,1.53-3.71,3.75,3.75,0,0,1,3-1.48M283.3,55.37h9.26V53.14l-2.89-.49V36.22H283.3v2.25l2.88.49V52.65l-2.88.49v2.23Zm6.37-27.61h-3.49v3.55h3.49V27.76ZM274.29,30.5V52.65l-2.89.49v2.23h9.26V53.14l-2.88-.49V27.76H271.4V30l2.89.49ZM260,55.37h9.26V53.14l-2.89-.49V36.22H260v2.25l2.88.49V52.65l-2.88.49v2.23Zm6.37-27.61h-3.49v3.55h3.49V27.76Zm-9.85,18.39a12.75,12.75,0,0,0-2-7.45A6.35,6.35,0,0,0,249,35.87a6.83,6.83,0,0,0-3.12.67,6.07,6.07,0,0,0-2.24,2V27.76h-6.38V30l2.89.49V55.37h3l.32-2.46a6,6,0,0,0,2.3,2.12,7,7,0,0,0,3.26.72,6.55,6.55,0,0,0,5.47-2.55,10.5,10.5,0,0,0,2-6.68v-.37Zm-3.5.37a8.14,8.14,0,0,1-1.19,4.64,4.13,4.13,0,0,1-3.66,1.75,4.67,4.67,0,0,1-2.73-.78,5.38,5.38,0,0,1-1.78-2.1V41.57a5.39,5.39,0,0,1,1.76-2.09,4.6,4.6,0,0,1,2.72-.78,4,4,0,0,1,3.68,2.07,10.64,10.64,0,0,1,1.2,5.38v.37ZM218.65,46a10.47,10.47,0,0,0,2.3,7,8.56,8.56,0,0,0,12.53,0,10.51,10.51,0,0,0,2.3-7v-.39a10.5,10.5,0,0,0-2.31-7,8.51,8.51,0,0,0-12.52,0,10.51,10.51,0,0,0-2.3,7V46Zm3.48-.39a9.14,9.14,0,0,1,1.28-5,4.6,4.6,0,0,1,7.59,0,9.05,9.05,0,0,1,1.3,5V46a9.06,9.06,0,0,1-1.3,5,4.62,4.62,0,0,1-7.58,0,9.05,9.05,0,0,1-1.29-5v-.39Zm-38.27,9.75h9.26V53.14l-2.89-.49V41.19a4.25,4.25,0,0,1,1.58-1.84,4.84,4.84,0,0,1,2.62-.65A3.46,3.46,0,0,1,197.32,40a6.24,6.24,0,0,1,1,3.93v8.77l-2.88.49v2.23h9.26V53.14l-2.89-.49V43.21A5.52,5.52,0,0,1,203.1,40,3.67,3.67,0,0,1,206,38.7a3.52,3.52,0,0,1,2.89,1.18,6.34,6.34,0,0,1,1,4v8.77l-2.88.49v2.23h9.27V53.14l-2.88-.49V43.92c0-2.69-.57-4.71-1.7-6a5.75,5.75,0,0,0-4.64-2,6.25,6.25,0,0,0-3.47,1,7.11,7.11,0,0,0-2.39,2.59,5.39,5.39,0,0,0-2.06-2.66,6,6,0,0,0-3.29-.88,7.23,7.23,0,0,0-3.36.74,6.25,6.25,0,0,0-2.37,2.11l-.23-2.5h-6v2.25l2.88.49V52.65l-2.88.49v2.23Zm-34.26,0h9.26V53.14L156,52.65V41.19a4.23,4.23,0,0,1,1.57-1.84,4.87,4.87,0,0,1,2.62-.65,3.48,3.48,0,0,1,2.9,1.25,6.3,6.3,0,0,1,1,3.93v8.77l-2.89.49v2.23h9.26V53.14l-2.89-.49V43.21A5.59,5.59,0,0,1,168.84,40a3.69,3.69,0,0,1,2.93-1.28,3.51,3.51,0,0,1,2.88,1.18,6.33,6.33,0,0,1,1,4v8.77l-2.89.49v2.23H182V53.14l-2.89-.49V43.92c0-2.69-.57-4.71-1.7-6a5.75,5.75,0,0,0-4.63-2,6.23,6.23,0,0,0-3.47,1,7.13,7.13,0,0,0-2.4,2.59,5.33,5.33,0,0,0-2.06-2.66,5.91,5.91,0,0,0-3.28-.88,7.17,7.17,0,0,0-3.36.74,6.36,6.36,0,0,0-2.38,2.11l-.23-2.5h-6v2.25l2.89.49V52.65l-2.89.49v2.23Zm-8.48-23V52.65l-2.88.49v2.23h9.26V53.14l-2.89-.49V32.34l2.89-.49V29.6h-9.26v2.25l2.88.49Zm-31.79-.94V51.75l-2.49.53v3.09h9.87V52.28l-2.23-.53v-4.4h2.22l2.93,4.75-1.06.18v3.09h8.85V52.28l-2-.41-4.84-7.28,3.46-4.74,2.26-.51V36.22h-9.41v3.12l1.68.23-3,4.19h-1.15v-16h-7.91v3.11l2.76.53ZM104,38a9,9,0,0,0-3.13-1.54,14.49,14.49,0,0,0-4.22-.6A8.32,8.32,0,0,0,91,37.64a5.38,5.38,0,0,0-2,4.16,4.46,4.46,0,0,0,1.73,3.69,12.29,12.29,0,0,0,5.11,2A8.46,8.46,0,0,1,99,48.63a1.8,1.8,0,0,1,.83,1.47A1.77,1.77,0,0,1,99,51.64a4.21,4.21,0,0,1-2.4.57A7.47,7.47,0,0,1,94.91,52a2.84,2.84,0,0,1-1.26-.58L92.94,49H89.33l0,4.3a10.48,10.48,0,0,0,3.28,1.85,12.32,12.32,0,0,0,4.07.64,9.63,9.63,0,0,0,5.85-1.63,5,5,0,0,0,2.22-4.22,4.58,4.58,0,0,0-1.72-3.79A12.52,12.52,0,0,0,97.81,44a8.22,8.22,0,0,1-3-1A1.75,1.75,0,0,1,94,41.56,1.87,1.87,0,0,1,94.8,40,3.51,3.51,0,0,1,97,39.42a5.32,5.32,0,0,1,1.78.29,4.62,4.62,0,0,1,1.33.7l.55,2.39h3.47L104,38ZM86.07,46a12.65,12.65,0,0,0-1.91-7.33,6.34,6.34,0,0,0-5.56-2.75,5.47,5.47,0,0,0-2.66.62,5.8,5.8,0,0,0-2,1.77V27.76H66.05v3.11l2.74.53v24h4.46L73.63,53a6,6,0,0,0,2.09,2,5.86,5.86,0,0,0,2.91.7,6.49,6.49,0,0,0,5.53-2.57,11.24,11.24,0,0,0,1.91-6.85V46Zm-5.15.38a8.21,8.21,0,0,1-.8,4,2.93,2.93,0,0,1-2.79,1.41,4.34,4.34,0,0,1-2.07-.46,3.3,3.3,0,0,1-1.32-1.35V41.83a3.52,3.52,0,0,1,1.31-1.44,3.86,3.86,0,0,1,2-.51,2.88,2.88,0,0,1,2.8,1.64A9.94,9.94,0,0,1,80.92,46v.38ZM48.68,0h1.65V83.5H48.68V0Z"/></svg>