<?xml version="1.0" encoding="iso-8859-1"?>
<!-- Generator: Adobe Illustrator 19.1.0, SVG Export Plug-In . SVG Version: 6.00 Build 0)  -->
<svg version="1.1" id="Layer_1" xmlns="http://www.w3.org/2000/svg" xmlns:xlink="http://www.w3.org/1999/xlink" x="0px" y="0px"
	 viewBox="0 0 35.378 35.378" style="enable-background:new 0 0 35.378 35.378;" xml:space="preserve">
<path style="fill:#292F65;" d="M30.956,0H4.422C1.983,0,0,1.983,0,4.422v26.533c0,2.439,1.983,4.422,4.422,4.422h13.267V23.217
	h-4.422v-5.528h4.422v-4.422c0-3.664,2.97-6.633,6.633-6.633h4.422v5.528h-2.211c-1.221,0-2.211-0.115-2.211,1.106v4.422h5.528
	l-2.211,5.528h-3.317v12.161h6.633c2.439,0,4.422-1.983,4.422-4.422V4.422C35.378,1.983,33.395,0,30.956,0L30.956,0z"/>
<g>
</g>
<g>
</g>
<g>
</g>
<g>
</g>
<g>
</g>
<g>
</g>
</svg>
