<?xml version="1.0" encoding="iso-8859-1"?>
<!-- Generator: Adobe Illustrator 19.1.0, SVG Export Plug-In . SVG Version: 6.00 Build 0)  -->
<svg version="1.1" xmlns="http://www.w3.org/2000/svg" xmlns:xlink="http://www.w3.org/1999/xlink" x="0px" y="0px"
	 viewBox="0 0 35.378 35.378" style="enable-background:new 0 0 35.378 35.378;" xml:space="preserve">
<g id="Layer_1" style="display:none;">
	<path style="display:inline;fill:#292F65;" d="M30.956,0H4.422C1.983,0,0,1.983,0,4.422v26.533c0,2.439,1.983,4.422,4.422,4.422
		h13.267V23.217h-4.422v-5.528h4.422v-4.422c0-3.664,2.97-6.633,6.633-6.633h4.422v5.528h-2.211c-1.221,0-2.211-0.115-2.211,1.106
		v4.422h5.528l-2.211,5.528h-3.317v12.161h6.633c2.439,0,4.422-1.983,4.422-4.422V4.422C35.378,1.983,33.395,0,30.956,0L30.956,0z"
		/>
</g>
<g id="Layer_2">
	<g>
		<path style="fill:#292F65;" d="M25.982,6.288H9.398c-1.715,0-3.11,1.395-3.11,3.11v16.584c0,1.715,1.395,3.11,3.11,3.11h16.584
			c1.715,0,3.11-1.395,3.11-3.11V9.398C29.091,7.683,27.696,6.288,25.982,6.288z M17.69,24.945c-4,0-7.256-3.255-7.256-7.256
			c0-4,3.255-7.256,7.256-7.256c4,0,7.256,3.255,7.256,7.256C24.945,21.69,21.69,24.945,17.69,24.945z M24.945,12.507
			c-1.143,0-2.073-0.93-2.073-2.073c0-1.143,0.93-2.073,2.073-2.073c1.143,0,2.073,0.93,2.073,2.073
			C27.018,11.577,26.088,12.507,24.945,12.507z"/>
		<path style="fill:#292F65;" d="M17.69,12.507c-2.857,0-5.183,2.325-5.183,5.183c0,2.857,2.325,5.183,5.183,5.183
			s5.183-2.325,5.183-5.183C22.872,14.832,20.547,12.507,17.69,12.507z"/>
		<path style="fill:#292F65;" d="M30.128,0H5.252C2.394,0,0,2.394,0,5.252v24.876c0,2.857,2.394,5.252,5.252,5.252h24.876
			c2.857,0,5.252-2.394,5.252-5.252V5.252C35.379,2.394,32.985,0,30.128,0z M31.164,25.982c0,2.857-2.325,5.183-5.183,5.183H9.398
			c-2.857,0-5.183-2.325-5.183-5.183V9.398c0-2.857,2.325-5.183,5.183-5.183h16.584c2.857,0,5.183,2.325,5.183,5.183V25.982z"/>
	</g>
	<g>
	</g>
	<g>
	</g>
	<g>
	</g>
	<g>
	</g>
	<g>
	</g>
	<g>
	</g>
</g>
</svg>
