<svg width="350" height="84" viewBox="0 0 350 84" fill="none" xmlns="http://www.w3.org/2000/svg">
<rect width="350" height="84" fill="white"/>
<path d="M27.208 45.8C22.824 45.8 19.4 44.664 16.936 42.392C14.504 40.12 13.208 36.952 13.048 32.888C13.016 31.96 13 30.472 13 28.424C13 26.376 13.016 24.888 13.048 23.96C13.208 19.992 14.52 16.888 16.984 14.648C19.48 12.376 22.888 11.24 27.208 11.24C30.152 11.24 32.68 11.736 34.792 12.728C36.904 13.72 38.504 14.968 39.592 16.472C40.68 17.944 41.256 19.4 41.32 20.84V20.936C41.32 21.192 41.224 21.416 41.032 21.608C40.84 21.768 40.6 21.848 40.312 21.848H35.368C35.048 21.848 34.808 21.8 34.648 21.704C34.488 21.576 34.344 21.368 34.216 21.08C33.768 19.896 32.984 18.888 31.864 18.056C30.744 17.192 29.192 16.76 27.208 16.76C24.968 16.76 23.208 17.368 21.928 18.584C20.68 19.8 20.008 21.672 19.912 24.2C19.88 25.128 19.864 26.536 19.864 28.424C19.864 30.28 19.88 31.688 19.912 32.648C20.104 37.736 22.568 40.28 27.304 40.28C29.576 40.28 31.4 39.672 32.776 38.456C34.152 37.208 34.84 35.368 34.84 32.936V31.448H28.984C28.632 31.448 28.344 31.336 28.12 31.112C27.928 30.888 27.832 30.6 27.832 30.248V27.704C27.832 27.352 27.928 27.064 28.12 26.84C28.344 26.616 28.632 26.504 28.984 26.504H40.456C40.808 26.504 41.08 26.616 41.272 26.84C41.496 27.064 41.608 27.352 41.608 27.704V32.744C41.608 35.4 41.016 37.72 39.832 39.704C38.68 41.656 37.016 43.16 34.84 44.216C32.664 45.272 30.12 45.8 27.208 45.8Z" fill="black"/>
<path d="M48.9134 45.32C48.5934 45.32 48.3214 45.208 48.0974 44.984C47.8734 44.76 47.7614 44.488 47.7614 44.168V12.92C47.7614 12.568 47.8574 12.28 48.0494 12.056C48.2734 11.832 48.5614 11.72 48.9134 11.72H52.6094C52.9934 11.72 53.2814 11.8 53.4734 11.96C53.6654 12.088 53.8414 12.264 54.0014 12.488L67.8254 33.992V12.92C67.8254 12.568 67.9214 12.28 68.1134 12.056C68.3374 11.832 68.6254 11.72 68.9774 11.72H73.0094C73.3614 11.72 73.6494 11.832 73.8734 12.056C74.0974 12.28 74.2094 12.568 74.2094 12.92V44.12C74.2094 44.472 74.0974 44.76 73.8734 44.984C73.6494 45.208 73.3774 45.32 73.0574 45.32H69.3134C68.7694 45.32 68.3054 45.064 67.9214 44.552L54.1454 23.528V44.168C54.1454 44.52 54.0334 44.808 53.8094 45.032C53.5854 45.224 53.2974 45.32 52.9454 45.32H48.9134Z" fill="black"/>
<path d="M82.8509 45.32C82.5309 45.32 82.2589 45.208 82.0349 44.984C81.8109 44.76 81.6989 44.488 81.6989 44.168V12.872C81.6989 12.52 81.8109 12.248 82.0349 12.056C82.2589 11.832 82.5309 11.72 82.8509 11.72H87.3629C87.7149 11.72 87.9869 11.832 88.1789 12.056C88.4029 12.248 88.5149 12.52 88.5149 12.872V44.168C88.5149 44.488 88.4029 44.76 88.1789 44.984C87.9869 45.208 87.7149 45.32 87.3629 45.32H82.8509Z" fill="black"/>
<path d="M101.563 45.32C101.083 45.32 100.699 45.192 100.411 44.936C100.123 44.68 99.9466 44.328 99.8826 43.88L94.1706 13.112L94.1226 12.728C94.1226 12.44 94.2186 12.2 94.4106 12.008C94.6346 11.816 94.8746 11.72 95.1306 11.72H99.3546C100.155 11.72 100.603 12.04 100.699 12.68L104.683 34.424L109.003 20.36C109.323 19.56 109.851 19.16 110.587 19.16H113.179C113.979 19.16 114.491 19.56 114.715 20.36L119.083 34.376L123.067 12.68C123.131 12.328 123.259 12.088 123.451 11.96C123.675 11.8 123.995 11.72 124.411 11.72H128.635C128.891 11.72 129.115 11.816 129.307 12.008C129.499 12.2 129.595 12.44 129.595 12.728C129.595 12.888 129.579 13.016 129.547 13.112L123.835 43.88C123.675 44.84 123.115 45.32 122.155 45.32H118.939C118.491 45.32 118.123 45.208 117.835 44.984C117.547 44.76 117.355 44.472 117.259 44.12L111.883 28.088L106.507 44.12C106.187 44.92 105.611 45.32 104.779 45.32H101.563Z" fill="black"/>
<path d="M157.708 24.5C156.064 24.5 154.78 24.074 153.856 23.222C152.944 22.37 152.458 21.182 152.398 19.658C152.386 19.31 152.38 18.752 152.38 17.984C152.38 17.216 152.386 16.658 152.398 16.31C152.458 14.822 152.95 13.658 153.874 12.818C154.81 11.966 156.088 11.54 157.708 11.54C158.812 11.54 159.76 11.726 160.552 12.098C161.344 12.47 161.944 12.938 162.352 13.502C162.76 14.054 162.976 14.6 163 15.14V15.176C163 15.272 162.964 15.356 162.892 15.428C162.82 15.488 162.73 15.518 162.622 15.518H160.768C160.648 15.518 160.558 15.5 160.498 15.464C160.438 15.416 160.384 15.338 160.336 15.23C160.168 14.786 159.874 14.408 159.454 14.096C159.034 13.772 158.452 13.61 157.708 13.61C156.868 13.61 156.208 13.838 155.728 14.294C155.26 14.75 155.008 15.452 154.972 16.4C154.96 16.748 154.954 17.276 154.954 17.984C154.954 18.68 154.96 19.208 154.972 19.568C155.044 21.476 155.968 22.43 157.744 22.43C158.596 22.43 159.28 22.202 159.796 21.746C160.312 21.278 160.57 20.588 160.57 19.676V19.118H158.374C158.242 19.118 158.134 19.076 158.05 18.992C157.978 18.908 157.942 18.8 157.942 18.668V17.714C157.942 17.582 157.978 17.474 158.05 17.39C158.134 17.306 158.242 17.264 158.374 17.264H162.676C162.808 17.264 162.91 17.306 162.982 17.39C163.066 17.474 163.108 17.582 163.108 17.714V19.604C163.108 20.6 162.886 21.47 162.442 22.214C162.01 22.946 161.386 23.51 160.57 23.906C159.754 24.302 158.8 24.5 157.708 24.5Z" fill="black"/>
<path d="M169.232 24.5C167.9 24.5 166.838 24.116 166.046 23.348C165.266 22.568 164.852 21.476 164.804 20.072L164.786 19.622L164.804 19.172C164.864 17.804 165.284 16.73 166.064 15.95C166.856 15.17 167.912 14.78 169.232 14.78C170.648 14.78 171.74 15.212 172.508 16.076C173.288 16.94 173.678 18.092 173.678 19.532V19.91C173.678 20.03 173.636 20.132 173.552 20.216C173.468 20.3 173.36 20.342 173.228 20.342H167.252V20.486C167.276 21.146 167.456 21.704 167.792 22.16C168.14 22.604 168.614 22.826 169.214 22.826C169.922 22.826 170.492 22.55 170.924 21.998C171.032 21.866 171.116 21.782 171.176 21.746C171.248 21.71 171.35 21.692 171.482 21.692H173.03C173.138 21.692 173.228 21.728 173.3 21.8C173.384 21.86 173.426 21.938 173.426 22.034C173.426 22.322 173.252 22.664 172.904 23.06C172.568 23.444 172.082 23.78 171.446 24.068C170.81 24.356 170.072 24.5 169.232 24.5ZM171.23 18.83V18.776C171.23 18.068 171.05 17.498 170.69 17.066C170.342 16.634 169.856 16.418 169.232 16.418C168.608 16.418 168.122 16.634 167.774 17.066C167.426 17.498 167.252 18.068 167.252 18.776V18.83H171.23Z" fill="black"/>
<path d="M179.134 24.5C178.234 24.5 177.478 24.368 176.866 24.104C176.254 23.828 175.798 23.51 175.498 23.15C175.21 22.778 175.066 22.46 175.066 22.196C175.066 22.076 175.108 21.98 175.192 21.908C175.276 21.836 175.372 21.8 175.48 21.8H176.902C177.01 21.8 177.1 21.842 177.172 21.926C177.22 21.962 177.346 22.07 177.55 22.25C177.754 22.442 177.994 22.592 178.27 22.7C178.546 22.808 178.852 22.862 179.188 22.862C179.668 22.862 180.064 22.766 180.376 22.574C180.688 22.382 180.844 22.118 180.844 21.782C180.844 21.53 180.772 21.326 180.628 21.17C180.496 21.014 180.25 20.876 179.89 20.756C179.53 20.624 178.996 20.486 178.288 20.342C177.268 20.126 176.512 19.796 176.02 19.352C175.54 18.908 175.3 18.32 175.3 17.588C175.3 17.108 175.444 16.658 175.732 16.238C176.02 15.806 176.446 15.458 177.01 15.194C177.586 14.918 178.27 14.78 179.062 14.78C179.866 14.78 180.562 14.912 181.15 15.176C181.738 15.428 182.182 15.734 182.482 16.094C182.794 16.442 182.95 16.754 182.95 17.03C182.95 17.138 182.908 17.234 182.824 17.318C182.752 17.39 182.662 17.426 182.554 17.426H181.222C181.126 17.426 181.024 17.384 180.916 17.3C180.832 17.24 180.7 17.126 180.52 16.958C180.34 16.79 180.13 16.658 179.89 16.562C179.65 16.466 179.368 16.418 179.044 16.418C178.6 16.418 178.252 16.514 178 16.706C177.76 16.898 177.64 17.15 177.64 17.462C177.64 17.69 177.7 17.876 177.82 18.02C177.94 18.164 178.174 18.302 178.522 18.434C178.87 18.566 179.392 18.698 180.088 18.83C181.24 19.058 182.062 19.412 182.554 19.892C183.058 20.372 183.31 20.96 183.31 21.656C183.31 22.496 182.944 23.18 182.212 23.708C181.48 24.236 180.454 24.5 179.134 24.5Z" fill="black"/>
<path d="M189.2 24.5C187.868 24.5 186.806 24.116 186.014 23.348C185.234 22.568 184.82 21.476 184.772 20.072L184.754 19.622L184.772 19.172C184.832 17.804 185.252 16.73 186.032 15.95C186.824 15.17 187.88 14.78 189.2 14.78C190.616 14.78 191.708 15.212 192.476 16.076C193.256 16.94 193.646 18.092 193.646 19.532V19.91C193.646 20.03 193.604 20.132 193.52 20.216C193.436 20.3 193.328 20.342 193.196 20.342H187.22V20.486C187.244 21.146 187.424 21.704 187.76 22.16C188.108 22.604 188.582 22.826 189.182 22.826C189.89 22.826 190.46 22.55 190.892 21.998C191 21.866 191.084 21.782 191.144 21.746C191.216 21.71 191.318 21.692 191.45 21.692H192.998C193.106 21.692 193.196 21.728 193.268 21.8C193.352 21.86 193.394 21.938 193.394 22.034C193.394 22.322 193.22 22.664 192.872 23.06C192.536 23.444 192.05 23.78 191.414 24.068C190.778 24.356 190.04 24.5 189.2 24.5ZM191.198 18.83V18.776C191.198 18.068 191.018 17.498 190.658 17.066C190.31 16.634 189.824 16.418 189.2 16.418C188.576 16.418 188.09 16.634 187.742 17.066C187.394 17.498 187.22 18.068 187.22 18.776V18.83H191.198Z" fill="black"/>
<path d="M196.007 24.32C195.887 24.32 195.785 24.278 195.701 24.194C195.617 24.11 195.575 24.008 195.575 23.888V11.972C195.575 11.84 195.617 11.738 195.701 11.666C195.785 11.582 195.887 11.54 196.007 11.54H197.501C197.633 11.54 197.735 11.582 197.807 11.666C197.891 11.738 197.933 11.84 197.933 11.972V23.888C197.933 24.008 197.891 24.11 197.807 24.194C197.735 24.278 197.633 24.32 197.501 24.32H196.007Z" fill="black"/>
<path d="M200.771 24.32C200.651 24.32 200.549 24.278 200.465 24.194C200.381 24.11 200.339 24.008 200.339 23.888V11.972C200.339 11.84 200.381 11.738 200.465 11.666C200.549 11.582 200.651 11.54 200.771 11.54H202.265C202.397 11.54 202.499 11.582 202.571 11.666C202.655 11.738 202.697 11.84 202.697 11.972V23.888C202.697 24.008 202.655 24.11 202.571 24.194C202.499 24.278 202.397 24.32 202.265 24.32H200.771Z" fill="black"/>
<path d="M208.63 24.5C207.73 24.5 206.974 24.368 206.362 24.104C205.75 23.828 205.294 23.51 204.994 23.15C204.706 22.778 204.562 22.46 204.562 22.196C204.562 22.076 204.604 21.98 204.688 21.908C204.772 21.836 204.868 21.8 204.976 21.8H206.398C206.506 21.8 206.596 21.842 206.668 21.926C206.716 21.962 206.842 22.07 207.046 22.25C207.25 22.442 207.49 22.592 207.766 22.7C208.042 22.808 208.348 22.862 208.684 22.862C209.164 22.862 209.56 22.766 209.872 22.574C210.184 22.382 210.34 22.118 210.34 21.782C210.34 21.53 210.268 21.326 210.124 21.17C209.992 21.014 209.746 20.876 209.386 20.756C209.026 20.624 208.492 20.486 207.784 20.342C206.764 20.126 206.008 19.796 205.516 19.352C205.036 18.908 204.796 18.32 204.796 17.588C204.796 17.108 204.94 16.658 205.228 16.238C205.516 15.806 205.942 15.458 206.506 15.194C207.082 14.918 207.766 14.78 208.558 14.78C209.362 14.78 210.058 14.912 210.646 15.176C211.234 15.428 211.678 15.734 211.978 16.094C212.29 16.442 212.446 16.754 212.446 17.03C212.446 17.138 212.404 17.234 212.32 17.318C212.248 17.39 212.158 17.426 212.05 17.426H210.718C210.622 17.426 210.52 17.384 210.412 17.3C210.328 17.24 210.196 17.126 210.016 16.958C209.836 16.79 209.626 16.658 209.386 16.562C209.146 16.466 208.864 16.418 208.54 16.418C208.096 16.418 207.748 16.514 207.496 16.706C207.256 16.898 207.136 17.15 207.136 17.462C207.136 17.69 207.196 17.876 207.316 18.02C207.436 18.164 207.67 18.302 208.018 18.434C208.366 18.566 208.888 18.698 209.584 18.83C210.736 19.058 211.558 19.412 212.05 19.892C212.554 20.372 212.806 20.96 212.806 21.656C212.806 22.496 212.44 23.18 211.708 23.708C210.976 24.236 209.95 24.5 208.63 24.5Z" fill="black"/>
<path d="M218.714 24.5C217.394 24.5 216.338 24.134 215.546 23.402C214.766 22.67 214.352 21.656 214.304 20.36L214.286 19.64L214.304 18.92C214.352 17.624 214.766 16.61 215.546 15.878C216.338 15.146 217.394 14.78 218.714 14.78C219.65 14.78 220.442 14.948 221.09 15.284C221.75 15.62 222.236 16.034 222.548 16.526C222.872 17.006 223.046 17.462 223.07 17.894C223.082 18.014 223.04 18.116 222.944 18.2C222.86 18.284 222.758 18.326 222.638 18.326H221.054C220.934 18.326 220.838 18.302 220.766 18.254C220.706 18.194 220.646 18.098 220.586 17.966C220.406 17.498 220.166 17.162 219.866 16.958C219.578 16.754 219.206 16.652 218.75 16.652C218.138 16.652 217.658 16.85 217.31 17.246C216.962 17.63 216.776 18.218 216.752 19.01L216.734 19.676L216.752 20.27C216.8 21.842 217.466 22.628 218.75 22.628C219.218 22.628 219.596 22.526 219.884 22.322C220.172 22.118 220.406 21.782 220.586 21.314C220.646 21.182 220.706 21.092 220.766 21.044C220.838 20.984 220.934 20.954 221.054 20.954H222.638C222.758 20.954 222.86 20.996 222.944 21.08C223.04 21.164 223.082 21.266 223.07 21.386C223.046 21.806 222.878 22.256 222.566 22.736C222.254 23.216 221.774 23.63 221.126 23.978C220.478 24.326 219.674 24.5 218.714 24.5Z" fill="black"/>
<path d="M225.398 24.32C225.278 24.32 225.176 24.278 225.092 24.194C225.008 24.11 224.966 24.008 224.966 23.888V11.972C224.966 11.84 225.008 11.738 225.092 11.666C225.176 11.582 225.278 11.54 225.398 11.54H227C227.132 11.54 227.234 11.582 227.306 11.666C227.39 11.738 227.432 11.84 227.432 11.972V16.076C228.152 15.212 229.124 14.78 230.348 14.78C231.452 14.78 232.334 15.146 232.994 15.878C233.654 16.598 233.984 17.582 233.984 18.83V23.888C233.984 24.008 233.942 24.11 233.858 24.194C233.786 24.278 233.684 24.32 233.552 24.32H231.932C231.812 24.32 231.71 24.278 231.626 24.194C231.542 24.11 231.5 24.008 231.5 23.888V18.938C231.5 18.23 231.326 17.684 230.978 17.3C230.642 16.904 230.15 16.706 229.502 16.706C228.866 16.706 228.362 16.904 227.99 17.3C227.618 17.696 227.432 18.242 227.432 18.938V23.888C227.432 24.008 227.39 24.11 227.306 24.194C227.234 24.278 227.132 24.32 227 24.32H225.398Z" fill="black"/>
<path d="M238.986 24.5C238.374 24.5 237.81 24.38 237.294 24.14C236.79 23.888 236.388 23.552 236.088 23.132C235.8 22.712 235.656 22.25 235.656 21.746C235.656 20.93 235.986 20.27 236.646 19.766C237.306 19.262 238.212 18.92 239.364 18.74L241.83 18.38V18.002C241.83 17.474 241.698 17.078 241.434 16.814C241.17 16.55 240.744 16.418 240.156 16.418C239.76 16.418 239.436 16.496 239.184 16.652C238.944 16.796 238.752 16.94 238.608 17.084C238.464 17.24 238.368 17.342 238.32 17.39C238.272 17.534 238.182 17.606 238.05 17.606H236.664C236.556 17.606 236.46 17.57 236.376 17.498C236.304 17.426 236.268 17.33 236.268 17.21C236.28 16.91 236.424 16.568 236.7 16.184C236.988 15.8 237.426 15.47 238.014 15.194C238.602 14.918 239.322 14.78 240.174 14.78C241.59 14.78 242.622 15.098 243.27 15.734C243.918 16.37 244.242 17.204 244.242 18.236V23.888C244.242 24.008 244.2 24.11 244.116 24.194C244.044 24.278 243.942 24.32 243.81 24.32H242.352C242.232 24.32 242.13 24.278 242.046 24.194C241.962 24.11 241.92 24.008 241.92 23.888V23.186C241.656 23.57 241.278 23.888 240.786 24.14C240.306 24.38 239.706 24.5 238.986 24.5ZM239.598 22.79C240.258 22.79 240.798 22.574 241.218 22.142C241.638 21.71 241.848 21.08 241.848 20.252V19.874L240.048 20.162C239.352 20.27 238.824 20.444 238.464 20.684C238.116 20.924 237.942 21.218 237.942 21.566C237.942 21.95 238.104 22.25 238.428 22.466C238.752 22.682 239.142 22.79 239.598 22.79Z" fill="black"/>
<path d="M247.903 24.32C247.783 24.32 247.681 24.278 247.597 24.194C247.513 24.11 247.471 24.008 247.471 23.888V16.868H246.013C245.893 16.868 245.791 16.826 245.707 16.742C245.623 16.646 245.581 16.538 245.581 16.418V15.392C245.581 15.272 245.623 15.17 245.707 15.086C245.791 15.002 245.893 14.96 246.013 14.96H247.471V14.222C247.471 12.074 248.647 11 250.999 11H252.223C252.355 11 252.457 11.042 252.529 11.126C252.613 11.198 252.655 11.3 252.655 11.432V12.458C252.655 12.59 252.613 12.698 252.529 12.782C252.445 12.866 252.343 12.908 252.223 12.908H251.071C250.603 12.908 250.273 13.022 250.081 13.25C249.901 13.478 249.811 13.832 249.811 14.312V14.96H252.043C252.175 14.96 252.277 15.002 252.349 15.086C252.433 15.158 252.475 15.26 252.475 15.392V16.418C252.475 16.55 252.433 16.658 252.349 16.742C252.265 16.826 252.163 16.868 252.043 16.868H249.811V23.888C249.811 24.008 249.769 24.11 249.685 24.194C249.601 24.278 249.499 24.32 249.379 24.32H247.903Z" fill="black"/>
<path d="M258.146 24.32C257.054 24.32 256.232 24.038 255.68 23.474C255.14 22.898 254.87 22.058 254.87 20.954V16.868H253.448C253.328 16.868 253.226 16.826 253.142 16.742C253.058 16.646 253.016 16.538 253.016 16.418V15.392C253.016 15.272 253.058 15.17 253.142 15.086C253.226 15.002 253.328 14.96 253.448 14.96H254.87V11.972C254.87 11.84 254.912 11.738 254.996 11.666C255.08 11.582 255.182 11.54 255.302 11.54H256.76C256.892 11.54 256.994 11.582 257.066 11.666C257.15 11.738 257.192 11.84 257.192 11.972V14.96H259.442C259.574 14.96 259.676 15.002 259.748 15.086C259.832 15.158 259.874 15.26 259.874 15.392V16.418C259.874 16.55 259.832 16.658 259.748 16.742C259.664 16.826 259.562 16.868 259.442 16.868H257.192V20.774C257.192 21.29 257.282 21.68 257.462 21.944C257.642 22.208 257.942 22.34 258.362 22.34H259.604C259.724 22.34 259.826 22.382 259.91 22.466C259.994 22.55 260.036 22.652 260.036 22.772V23.888C260.036 24.008 259.994 24.11 259.91 24.194C259.838 24.278 259.736 24.32 259.604 24.32H258.146Z" fill="black"/>
<path d="M154.036 49.32C153.916 49.32 153.814 49.278 153.73 49.194C153.646 49.11 153.604 49.008 153.604 48.888V41.868H152.146C152.026 41.868 151.924 41.826 151.84 41.742C151.756 41.646 151.714 41.538 151.714 41.418V40.392C151.714 40.272 151.756 40.17 151.84 40.086C151.924 40.002 152.026 39.96 152.146 39.96H153.604V39.222C153.604 37.074 154.78 36 157.132 36H158.356C158.488 36 158.59 36.042 158.662 36.126C158.746 36.198 158.788 36.3 158.788 36.432V37.458C158.788 37.59 158.746 37.698 158.662 37.782C158.578 37.866 158.476 37.908 158.356 37.908H157.204C156.736 37.908 156.406 38.022 156.214 38.25C156.034 38.478 155.944 38.832 155.944 39.312V39.96H158.176C158.308 39.96 158.41 40.002 158.482 40.086C158.566 40.158 158.608 40.26 158.608 40.392V41.418C158.608 41.55 158.566 41.658 158.482 41.742C158.398 41.826 158.296 41.868 158.176 41.868H155.944V48.888C155.944 49.008 155.902 49.11 155.818 49.194C155.734 49.278 155.632 49.32 155.512 49.32H154.036Z" fill="black"/>
<path d="M163.523 49.5C162.419 49.5 161.549 49.14 160.913 48.42C160.277 47.688 159.959 46.698 159.959 45.45V40.392C159.959 40.272 160.001 40.17 160.085 40.086C160.169 40.002 160.271 39.96 160.391 39.96H161.975C162.107 39.96 162.209 40.002 162.281 40.086C162.365 40.158 162.407 40.26 162.407 40.392V45.342C162.407 46.83 163.061 47.574 164.369 47.574C164.993 47.574 165.485 47.376 165.845 46.98C166.217 46.584 166.403 46.038 166.403 45.342V40.392C166.403 40.272 166.445 40.17 166.529 40.086C166.613 40.002 166.715 39.96 166.835 39.96H168.419C168.551 39.96 168.653 40.002 168.725 40.086C168.809 40.158 168.851 40.26 168.851 40.392V48.888C168.851 49.008 168.809 49.11 168.725 49.194C168.653 49.278 168.551 49.32 168.419 49.32H166.961C166.841 49.32 166.739 49.278 166.655 49.194C166.571 49.11 166.529 49.008 166.529 48.888V48.15C165.857 49.05 164.855 49.5 163.523 49.5ZM162.047 38.268C161.927 38.268 161.831 38.232 161.759 38.16C161.687 38.088 161.651 37.992 161.651 37.872V36.558C161.651 36.438 161.687 36.342 161.759 36.27C161.831 36.186 161.927 36.144 162.047 36.144H163.361C163.481 36.144 163.577 36.186 163.649 36.27C163.733 36.342 163.775 36.438 163.775 36.558V37.872C163.775 37.992 163.733 38.088 163.649 38.16C163.577 38.232 163.481 38.268 163.361 38.268H162.047ZM165.431 38.268C165.311 38.268 165.215 38.232 165.143 38.16C165.071 38.088 165.035 37.992 165.035 37.872V36.558C165.035 36.438 165.071 36.342 165.143 36.27C165.215 36.186 165.311 36.144 165.431 36.144H166.745C166.865 36.144 166.961 36.186 167.033 36.27C167.117 36.342 167.159 36.438 167.159 36.558V37.872C167.159 37.992 167.117 38.088 167.033 38.16C166.961 38.232 166.865 38.268 166.745 38.268H165.431Z" fill="black"/>
<path d="M171.661 49.32C171.541 49.32 171.439 49.278 171.355 49.194C171.271 49.11 171.229 49.008 171.229 48.888V40.41C171.229 40.29 171.271 40.188 171.355 40.104C171.439 40.008 171.541 39.96 171.661 39.96H173.119C173.251 39.96 173.359 40.002 173.443 40.086C173.527 40.17 173.569 40.278 173.569 40.41V41.148C173.857 40.764 174.217 40.47 174.649 40.266C175.093 40.062 175.597 39.96 176.161 39.96H176.899C177.031 39.96 177.133 40.002 177.205 40.086C177.289 40.158 177.331 40.26 177.331 40.392V41.688C177.331 41.808 177.289 41.91 177.205 41.994C177.133 42.078 177.031 42.12 176.899 42.12H175.495C174.931 42.12 174.487 42.282 174.163 42.606C173.839 42.93 173.677 43.374 173.677 43.938V48.888C173.677 49.008 173.635 49.11 173.551 49.194C173.467 49.278 173.359 49.32 173.227 49.32H171.661Z" fill="black"/>
<path d="M183.109 49.32C182.989 49.32 182.887 49.278 182.803 49.194C182.719 49.11 182.677 49.008 182.677 48.888V37.17C182.677 37.038 182.713 36.93 182.785 36.846C182.869 36.762 182.977 36.72 183.109 36.72H184.495C184.639 36.72 184.747 36.75 184.819 36.81C184.891 36.858 184.957 36.924 185.017 37.008L190.201 45.072V37.17C190.201 37.038 190.237 36.93 190.309 36.846C190.393 36.762 190.501 36.72 190.633 36.72H192.145C192.277 36.72 192.385 36.762 192.469 36.846C192.553 36.93 192.595 37.038 192.595 37.17V48.87C192.595 49.002 192.553 49.11 192.469 49.194C192.385 49.278 192.283 49.32 192.163 49.32H190.759C190.555 49.32 190.381 49.224 190.237 49.032L185.071 41.148V48.888C185.071 49.02 185.029 49.128 184.945 49.212C184.861 49.284 184.753 49.32 184.621 49.32H183.109Z" fill="black"/>
<path d="M197.906 49.5C197.294 49.5 196.73 49.38 196.214 49.14C195.71 48.888 195.308 48.552 195.008 48.132C194.72 47.712 194.576 47.25 194.576 46.746C194.576 45.93 194.906 45.27 195.566 44.766C196.226 44.262 197.132 43.92 198.284 43.74L200.75 43.38V43.002C200.75 42.474 200.618 42.078 200.354 41.814C200.09 41.55 199.664 41.418 199.076 41.418C198.68 41.418 198.356 41.496 198.104 41.652C197.864 41.796 197.672 41.94 197.528 42.084C197.384 42.24 197.288 42.342 197.24 42.39C197.192 42.534 197.102 42.606 196.97 42.606H195.584C195.476 42.606 195.38 42.57 195.296 42.498C195.224 42.426 195.188 42.33 195.188 42.21C195.2 41.91 195.344 41.568 195.62 41.184C195.908 40.8 196.346 40.47 196.934 40.194C197.522 39.918 198.242 39.78 199.094 39.78C200.51 39.78 201.542 40.098 202.19 40.734C202.838 41.37 203.162 42.204 203.162 43.236V48.888C203.162 49.008 203.12 49.11 203.036 49.194C202.964 49.278 202.862 49.32 202.73 49.32H201.272C201.152 49.32 201.05 49.278 200.966 49.194C200.882 49.11 200.84 49.008 200.84 48.888V48.186C200.576 48.57 200.198 48.888 199.706 49.14C199.226 49.38 198.626 49.5 197.906 49.5ZM198.518 47.79C199.178 47.79 199.718 47.574 200.138 47.142C200.558 46.71 200.768 46.08 200.768 45.252V44.874L198.968 45.162C198.272 45.27 197.744 45.444 197.384 45.684C197.036 45.924 196.862 46.218 196.862 46.566C196.862 46.95 197.024 47.25 197.348 47.466C197.672 47.682 198.062 47.79 198.518 47.79Z" fill="black"/>
<path d="M209.521 49.5C208.201 49.5 207.145 49.134 206.353 48.402C205.573 47.67 205.159 46.656 205.111 45.36L205.093 44.64L205.111 43.92C205.159 42.624 205.573 41.61 206.353 40.878C207.145 40.146 208.201 39.78 209.521 39.78C210.457 39.78 211.249 39.948 211.897 40.284C212.557 40.62 213.043 41.034 213.355 41.526C213.679 42.006 213.853 42.462 213.877 42.894C213.889 43.014 213.847 43.116 213.751 43.2C213.667 43.284 213.565 43.326 213.445 43.326H211.861C211.741 43.326 211.645 43.302 211.573 43.254C211.513 43.194 211.453 43.098 211.393 42.966C211.213 42.498 210.973 42.162 210.673 41.958C210.385 41.754 210.013 41.652 209.557 41.652C208.945 41.652 208.465 41.85 208.117 42.246C207.769 42.63 207.583 43.218 207.559 44.01L207.541 44.676L207.559 45.27C207.607 46.842 208.273 47.628 209.557 47.628C210.025 47.628 210.403 47.526 210.691 47.322C210.979 47.118 211.213 46.782 211.393 46.314C211.453 46.182 211.513 46.092 211.573 46.044C211.645 45.984 211.741 45.954 211.861 45.954H213.445C213.565 45.954 213.667 45.996 213.751 46.08C213.847 46.164 213.889 46.266 213.877 46.386C213.853 46.806 213.685 47.256 213.373 47.736C213.061 48.216 212.581 48.63 211.933 48.978C211.285 49.326 210.481 49.5 209.521 49.5Z" fill="black"/>
<path d="M216.204 49.32C216.084 49.32 215.982 49.278 215.898 49.194C215.814 49.11 215.772 49.008 215.772 48.888V36.972C215.772 36.84 215.814 36.738 215.898 36.666C215.982 36.582 216.084 36.54 216.204 36.54H217.806C217.938 36.54 218.04 36.582 218.112 36.666C218.196 36.738 218.238 36.84 218.238 36.972V41.076C218.958 40.212 219.93 39.78 221.154 39.78C222.258 39.78 223.14 40.146 223.8 40.878C224.46 41.598 224.79 42.582 224.79 43.83V48.888C224.79 49.008 224.748 49.11 224.664 49.194C224.592 49.278 224.49 49.32 224.358 49.32H222.738C222.618 49.32 222.516 49.278 222.432 49.194C222.348 49.11 222.306 49.008 222.306 48.888V43.938C222.306 43.23 222.132 42.684 221.784 42.3C221.448 41.904 220.956 41.706 220.308 41.706C219.672 41.706 219.168 41.904 218.796 42.3C218.424 42.696 218.238 43.242 218.238 43.938V48.888C218.238 49.008 218.196 49.11 218.112 49.194C218.04 49.278 217.938 49.32 217.806 49.32H216.204Z" fill="black"/>
<path d="M227.525 49.32C227.405 49.32 227.303 49.278 227.219 49.194C227.135 49.11 227.093 49.008 227.093 48.888V36.972C227.093 36.84 227.135 36.738 227.219 36.666C227.303 36.582 227.405 36.54 227.525 36.54H229.127C229.259 36.54 229.361 36.582 229.433 36.666C229.517 36.738 229.559 36.84 229.559 36.972V41.076C230.279 40.212 231.251 39.78 232.475 39.78C233.579 39.78 234.461 40.146 235.121 40.878C235.781 41.598 236.111 42.582 236.111 43.83V48.888C236.111 49.008 236.069 49.11 235.985 49.194C235.913 49.278 235.811 49.32 235.679 49.32H234.059C233.938 49.32 233.837 49.278 233.753 49.194C233.669 49.11 233.627 49.008 233.627 48.888V43.938C233.627 43.23 233.453 42.684 233.105 42.3C232.769 41.904 232.277 41.706 231.629 41.706C230.993 41.706 230.489 41.904 230.117 42.3C229.745 42.696 229.559 43.242 229.559 43.938V48.888C229.559 49.008 229.517 49.11 229.433 49.194C229.361 49.278 229.259 49.32 229.127 49.32H227.525Z" fill="black"/>
<path d="M241.113 49.5C240.501 49.5 239.937 49.38 239.421 49.14C238.917 48.888 238.515 48.552 238.215 48.132C237.927 47.712 237.783 47.25 237.783 46.746C237.783 45.93 238.113 45.27 238.773 44.766C239.433 44.262 240.339 43.92 241.491 43.74L243.957 43.38V43.002C243.957 42.474 243.825 42.078 243.561 41.814C243.297 41.55 242.871 41.418 242.283 41.418C241.887 41.418 241.563 41.496 241.311 41.652C241.071 41.796 240.879 41.94 240.735 42.084C240.591 42.24 240.495 42.342 240.447 42.39C240.399 42.534 240.309 42.606 240.177 42.606H238.791C238.683 42.606 238.587 42.57 238.503 42.498C238.431 42.426 238.395 42.33 238.395 42.21C238.407 41.91 238.551 41.568 238.827 41.184C239.115 40.8 239.553 40.47 240.141 40.194C240.729 39.918 241.449 39.78 242.301 39.78C243.717 39.78 244.749 40.098 245.397 40.734C246.045 41.37 246.369 42.204 246.369 43.236V48.888C246.369 49.008 246.327 49.11 246.243 49.194C246.171 49.278 246.069 49.32 245.937 49.32H244.479C244.359 49.32 244.257 49.278 244.173 49.194C244.089 49.11 244.047 49.008 244.047 48.888V48.186C243.783 48.57 243.405 48.888 242.913 49.14C242.433 49.38 241.833 49.5 241.113 49.5ZM241.725 47.79C242.385 47.79 242.925 47.574 243.345 47.142C243.765 46.71 243.975 46.08 243.975 45.252V44.874L242.175 45.162C241.479 45.27 240.951 45.444 240.591 45.684C240.243 45.924 240.069 46.218 240.069 46.566C240.069 46.95 240.231 47.25 240.555 47.466C240.879 47.682 241.269 47.79 241.725 47.79Z" fill="black"/>
<path d="M249.128 49.32C249.008 49.32 248.906 49.278 248.822 49.194C248.738 49.11 248.696 49.008 248.696 48.888V36.972C248.696 36.84 248.738 36.738 248.822 36.666C248.906 36.582 249.008 36.54 249.128 36.54H250.622C250.754 36.54 250.856 36.582 250.928 36.666C251.012 36.738 251.054 36.84 251.054 36.972V48.888C251.054 49.008 251.012 49.11 250.928 49.194C250.856 49.278 250.754 49.32 250.622 49.32H249.128Z" fill="black"/>
<path d="M257.672 49.32C256.58 49.32 255.758 49.038 255.206 48.474C254.666 47.898 254.396 47.058 254.396 45.954V41.868H252.974C252.854 41.868 252.752 41.826 252.668 41.742C252.584 41.646 252.542 41.538 252.542 41.418V40.392C252.542 40.272 252.584 40.17 252.668 40.086C252.752 40.002 252.854 39.96 252.974 39.96H254.396V36.972C254.396 36.84 254.438 36.738 254.522 36.666C254.606 36.582 254.708 36.54 254.828 36.54H256.286C256.418 36.54 256.52 36.582 256.592 36.666C256.676 36.738 256.718 36.84 256.718 36.972V39.96H258.968C259.1 39.96 259.202 40.002 259.274 40.086C259.358 40.158 259.4 40.26 259.4 40.392V41.418C259.4 41.55 259.358 41.658 259.274 41.742C259.19 41.826 259.088 41.868 258.968 41.868H256.718V45.774C256.718 46.29 256.808 46.68 256.988 46.944C257.168 47.208 257.468 47.34 257.888 47.34H259.13C259.25 47.34 259.352 47.382 259.436 47.466C259.52 47.55 259.562 47.652 259.562 47.772V48.888C259.562 49.008 259.52 49.11 259.436 49.194C259.364 49.278 259.262 49.32 259.13 49.32H257.672Z" fill="black"/>
<path d="M261.518 38.412C261.398 38.412 261.296 38.37 261.212 38.286C261.128 38.202 261.086 38.1 261.086 37.98V36.684C261.086 36.564 261.128 36.462 261.212 36.378C261.296 36.294 261.398 36.252 261.518 36.252H263.156C263.276 36.252 263.378 36.294 263.462 36.378C263.558 36.462 263.606 36.564 263.606 36.684V37.98C263.606 38.1 263.564 38.202 263.48 38.286C263.396 38.37 263.288 38.412 263.156 38.412H261.518ZM261.59 49.32C261.47 49.32 261.368 49.278 261.284 49.194C261.2 49.11 261.158 49.008 261.158 48.888V40.392C261.158 40.272 261.2 40.17 261.284 40.086C261.368 40.002 261.47 39.96 261.59 39.96H263.084C263.216 39.96 263.318 40.002 263.39 40.086C263.474 40.158 263.516 40.26 263.516 40.392V48.888C263.516 49.008 263.474 49.11 263.39 49.194C263.318 49.278 263.216 49.32 263.084 49.32H261.59Z" fill="black"/>
<path d="M270.135 53.28C269.067 53.28 268.203 53.1 267.543 52.74C266.883 52.392 266.415 51.99 266.139 51.534C265.863 51.078 265.725 50.688 265.725 50.364C265.725 50.256 265.767 50.16 265.851 50.076C265.947 49.992 266.049 49.95 266.157 49.95H267.723C267.831 49.95 267.921 49.974 267.993 50.022C268.077 50.082 268.143 50.184 268.191 50.328C268.311 50.652 268.503 50.922 268.767 51.138C269.043 51.366 269.469 51.48 270.045 51.48C270.765 51.48 271.293 51.318 271.629 50.994C271.977 50.67 272.151 50.112 272.151 49.32V48.096C271.491 48.876 270.567 49.266 269.379 49.266C268.131 49.266 267.189 48.882 266.553 48.114C265.929 47.346 265.593 46.314 265.545 45.018L265.527 44.532L265.545 44.046C265.593 42.774 265.935 41.748 266.571 40.968C267.207 40.176 268.143 39.78 269.379 39.78C270.015 39.78 270.573 39.9 271.053 40.14C271.533 40.38 271.935 40.71 272.259 41.13V40.41C272.259 40.278 272.301 40.17 272.385 40.086C272.469 40.002 272.571 39.96 272.691 39.96H274.149C274.269 39.96 274.371 40.008 274.455 40.104C274.539 40.188 274.581 40.29 274.581 40.41L274.599 49.086C274.599 50.418 274.227 51.45 273.483 52.182C272.739 52.914 271.623 53.28 270.135 53.28ZM270.045 47.358C270.729 47.358 271.239 47.142 271.575 46.71C271.923 46.278 272.115 45.75 272.151 45.126C272.163 45.03 272.169 44.832 272.169 44.532C272.169 44.244 272.163 44.052 272.151 43.956C272.115 43.32 271.923 42.786 271.575 42.354C271.239 41.922 270.729 41.706 270.045 41.706C268.749 41.706 268.065 42.504 267.993 44.1L267.975 44.532C267.975 45.384 268.125 46.068 268.425 46.584C268.737 47.1 269.277 47.358 270.045 47.358Z" fill="black"/>
<path d="M281.028 49.5C279.696 49.5 278.634 49.116 277.842 48.348C277.062 47.568 276.648 46.476 276.6 45.072L276.582 44.622L276.6 44.172C276.66 42.804 277.08 41.73 277.86 40.95C278.652 40.17 279.708 39.78 281.028 39.78C282.444 39.78 283.536 40.212 284.304 41.076C285.084 41.94 285.474 43.092 285.474 44.532V44.91C285.474 45.03 285.432 45.132 285.348 45.216C285.264 45.3 285.156 45.342 285.024 45.342H279.048V45.486C279.072 46.146 279.252 46.704 279.588 47.16C279.936 47.604 280.41 47.826 281.01 47.826C281.718 47.826 282.288 47.55 282.72 46.998C282.828 46.866 282.912 46.782 282.972 46.746C283.044 46.71 283.146 46.692 283.278 46.692H284.826C284.934 46.692 285.024 46.728 285.096 46.8C285.18 46.86 285.222 46.938 285.222 47.034C285.222 47.322 285.048 47.664 284.7 48.06C284.364 48.444 283.878 48.78 283.242 49.068C282.606 49.356 281.868 49.5 281.028 49.5ZM283.026 43.83V43.776C283.026 43.068 282.846 42.498 282.486 42.066C282.138 41.634 281.652 41.418 281.028 41.418C280.404 41.418 279.918 41.634 279.57 42.066C279.222 42.498 279.048 43.068 279.048 43.776V43.83H283.026Z" fill="black"/>
<path d="M153.244 73.32C153.124 73.32 153.022 73.278 152.938 73.194C152.854 73.11 152.812 73.008 152.812 72.888V61.152C152.812 61.02 152.854 60.918 152.938 60.846C153.022 60.762 153.124 60.72 153.244 60.72H154.936C155.068 60.72 155.17 60.762 155.242 60.846C155.326 60.918 155.368 61.02 155.368 61.152V72.888C155.368 73.008 155.326 73.11 155.242 73.194C155.17 73.278 155.068 73.32 154.936 73.32H153.244Z" fill="black"/>
<path d="M158.407 73.32C158.287 73.32 158.185 73.278 158.101 73.194C158.017 73.11 157.975 73.008 157.975 72.888V64.392C157.975 64.272 158.017 64.17 158.101 64.086C158.185 64.002 158.287 63.96 158.407 63.96H159.811C159.931 63.96 160.033 64.002 160.117 64.086C160.201 64.17 160.243 64.272 160.243 64.392V65.004C160.867 64.188 161.737 63.78 162.853 63.78C164.185 63.78 165.115 64.314 165.643 65.382C165.931 64.902 166.339 64.518 166.867 64.23C167.395 63.93 167.965 63.78 168.577 63.78C169.561 63.78 170.365 64.116 170.989 64.788C171.613 65.46 171.925 66.438 171.925 67.722V72.888C171.925 73.008 171.883 73.11 171.799 73.194C171.727 73.278 171.625 73.32 171.493 73.32H170.017C169.897 73.32 169.795 73.278 169.711 73.194C169.627 73.11 169.585 73.008 169.585 72.888V67.866C169.585 67.11 169.423 66.564 169.099 66.228C168.787 65.88 168.367 65.706 167.839 65.706C167.371 65.706 166.969 65.88 166.633 66.228C166.309 66.576 166.147 67.122 166.147 67.866V72.888C166.147 73.008 166.105 73.11 166.021 73.194C165.937 73.278 165.835 73.32 165.715 73.32H164.239C164.119 73.32 164.017 73.278 163.933 73.194C163.849 73.11 163.807 73.008 163.807 72.888V67.866C163.807 67.11 163.639 66.564 163.303 66.228C162.979 65.88 162.565 65.706 162.061 65.706C161.581 65.706 161.173 65.88 160.837 66.228C160.513 66.576 160.351 67.122 160.351 67.866V72.888C160.351 73.008 160.309 73.11 160.225 73.194C160.141 73.278 160.039 73.32 159.919 73.32H158.407Z" fill="black"/>
<path d="M174.649 73.32C174.529 73.32 174.427 73.278 174.343 73.194C174.259 73.11 174.217 73.008 174.217 72.888V64.392C174.217 64.272 174.259 64.17 174.343 64.086C174.427 64.002 174.529 63.96 174.649 63.96H176.053C176.173 63.96 176.275 64.002 176.359 64.086C176.443 64.17 176.485 64.272 176.485 64.392V65.004C177.109 64.188 177.979 63.78 179.095 63.78C180.427 63.78 181.357 64.314 181.885 65.382C182.173 64.902 182.581 64.518 183.109 64.23C183.637 63.93 184.207 63.78 184.819 63.78C185.803 63.78 186.607 64.116 187.231 64.788C187.855 65.46 188.167 66.438 188.167 67.722V72.888C188.167 73.008 188.125 73.11 188.041 73.194C187.969 73.278 187.867 73.32 187.735 73.32H186.259C186.139 73.32 186.037 73.278 185.953 73.194C185.869 73.11 185.827 73.008 185.827 72.888V67.866C185.827 67.11 185.665 66.564 185.341 66.228C185.029 65.88 184.609 65.706 184.081 65.706C183.613 65.706 183.211 65.88 182.875 66.228C182.551 66.576 182.389 67.122 182.389 67.866V72.888C182.389 73.008 182.347 73.11 182.263 73.194C182.179 73.278 182.077 73.32 181.957 73.32H180.481C180.361 73.32 180.259 73.278 180.175 73.194C180.091 73.11 180.049 73.008 180.049 72.888V67.866C180.049 67.11 179.881 66.564 179.545 66.228C179.221 65.88 178.807 65.706 178.303 65.706C177.823 65.706 177.415 65.88 177.079 66.228C176.755 66.576 176.593 67.122 176.593 67.866V72.888C176.593 73.008 176.551 73.11 176.467 73.194C176.383 73.278 176.281 73.32 176.161 73.32H174.649Z" fill="black"/>
<path d="M194.599 73.5C193.195 73.5 192.109 73.14 191.341 72.42C190.573 71.688 190.159 70.692 190.099 69.432L190.081 68.64L190.099 67.848C190.159 66.6 190.579 65.61 191.359 64.878C192.139 64.146 193.219 63.78 194.599 63.78C195.979 63.78 197.059 64.146 197.839 64.878C198.619 65.61 199.039 66.6 199.099 67.848C199.111 67.992 199.117 68.256 199.117 68.64C199.117 69.024 199.111 69.288 199.099 69.432C199.039 70.692 198.625 71.688 197.857 72.42C197.089 73.14 196.003 73.5 194.599 73.5ZM194.599 71.718C195.235 71.718 195.727 71.52 196.075 71.124C196.423 70.716 196.615 70.122 196.651 69.342C196.663 69.222 196.669 68.988 196.669 68.64C196.669 68.292 196.663 68.058 196.651 67.938C196.615 67.158 196.423 66.57 196.075 66.174C195.727 65.766 195.235 65.562 194.599 65.562C193.963 65.562 193.471 65.766 193.123 66.174C192.775 66.57 192.583 67.158 192.547 67.938L192.529 68.64L192.547 69.342C192.583 70.122 192.775 70.716 193.123 71.124C193.471 71.52 193.963 71.718 194.599 71.718Z" fill="black"/>
<path d="M206.296 73.5C205.06 73.5 204.1 73.074 203.416 72.222V72.888C203.416 73.008 203.374 73.11 203.29 73.194C203.218 73.278 203.116 73.32 202.984 73.32H201.562C201.442 73.32 201.34 73.278 201.256 73.194C201.172 73.11 201.13 73.008 201.13 72.888V60.972C201.13 60.84 201.172 60.738 201.256 60.666C201.34 60.582 201.442 60.54 201.562 60.54H203.092C203.224 60.54 203.326 60.582 203.398 60.666C203.482 60.738 203.524 60.84 203.524 60.972V64.968C204.208 64.176 205.132 63.78 206.296 63.78C207.508 63.78 208.438 64.176 209.086 64.968C209.734 65.76 210.082 66.786 210.13 68.046C210.142 68.19 210.148 68.382 210.148 68.622C210.148 68.874 210.142 69.072 210.13 69.216C210.082 70.512 209.734 71.55 209.086 72.33C208.438 73.11 207.508 73.5 206.296 73.5ZM205.63 71.574C206.926 71.574 207.616 70.776 207.7 69.18C207.712 69.06 207.718 68.88 207.718 68.64C207.718 68.4 207.712 68.22 207.7 68.1C207.616 66.504 206.926 65.706 205.63 65.706C204.958 65.706 204.442 65.922 204.082 66.354C203.734 66.774 203.548 67.284 203.524 67.884L203.506 68.568L203.524 69.27C203.56 69.918 203.746 70.464 204.082 70.908C204.418 71.352 204.934 71.574 205.63 71.574Z" fill="black"/>
<path d="M212.511 62.412C212.391 62.412 212.289 62.37 212.205 62.286C212.121 62.202 212.079 62.1 212.079 61.98V60.684C212.079 60.564 212.121 60.462 212.205 60.378C212.289 60.294 212.391 60.252 212.511 60.252H214.149C214.269 60.252 214.371 60.294 214.455 60.378C214.551 60.462 214.599 60.564 214.599 60.684V61.98C214.599 62.1 214.557 62.202 214.473 62.286C214.389 62.37 214.281 62.412 214.149 62.412H212.511ZM212.583 73.32C212.463 73.32 212.361 73.278 212.277 73.194C212.193 73.11 212.151 73.008 212.151 72.888V64.392C212.151 64.272 212.193 64.17 212.277 64.086C212.361 64.002 212.463 63.96 212.583 63.96H214.077C214.209 63.96 214.311 64.002 214.383 64.086C214.467 64.158 214.509 64.26 214.509 64.392V72.888C214.509 73.008 214.467 73.11 214.383 73.194C214.311 73.278 214.209 73.32 214.077 73.32H212.583Z" fill="black"/>
<path d="M217.347 73.32C217.227 73.32 217.125 73.278 217.041 73.194C216.957 73.11 216.915 73.008 216.915 72.888V60.972C216.915 60.84 216.957 60.738 217.041 60.666C217.125 60.582 217.227 60.54 217.347 60.54H218.841C218.973 60.54 219.075 60.582 219.147 60.666C219.231 60.738 219.273 60.84 219.273 60.972V72.888C219.273 73.008 219.231 73.11 219.147 73.194C219.075 73.278 218.973 73.32 218.841 73.32H217.347Z" fill="black"/>
<path d="M222.02 62.412C221.9 62.412 221.798 62.37 221.714 62.286C221.63 62.202 221.588 62.1 221.588 61.98V60.684C221.588 60.564 221.63 60.462 221.714 60.378C221.798 60.294 221.9 60.252 222.02 60.252H223.658C223.778 60.252 223.88 60.294 223.964 60.378C224.06 60.462 224.108 60.564 224.108 60.684V61.98C224.108 62.1 224.066 62.202 223.982 62.286C223.898 62.37 223.79 62.412 223.658 62.412H222.02ZM222.092 73.32C221.972 73.32 221.87 73.278 221.786 73.194C221.702 73.11 221.66 73.008 221.66 72.888V64.392C221.66 64.272 221.702 64.17 221.786 64.086C221.87 64.002 221.972 63.96 222.092 63.96H223.586C223.718 63.96 223.82 64.002 223.892 64.086C223.976 64.158 224.018 64.26 224.018 64.392V72.888C224.018 73.008 223.976 73.11 223.892 73.194C223.82 73.278 223.718 73.32 223.586 73.32H222.092Z" fill="black"/>
<path d="M230.439 73.5C229.107 73.5 228.045 73.116 227.253 72.348C226.473 71.568 226.059 70.476 226.011 69.072L225.993 68.622L226.011 68.172C226.071 66.804 226.491 65.73 227.271 64.95C228.063 64.17 229.119 63.78 230.439 63.78C231.855 63.78 232.947 64.212 233.715 65.076C234.495 65.94 234.885 67.092 234.885 68.532V68.91C234.885 69.03 234.843 69.132 234.759 69.216C234.675 69.3 234.567 69.342 234.435 69.342H228.459V69.486C228.483 70.146 228.663 70.704 228.999 71.16C229.347 71.604 229.821 71.826 230.421 71.826C231.129 71.826 231.699 71.55 232.131 70.998C232.239 70.866 232.323 70.782 232.383 70.746C232.455 70.71 232.557 70.692 232.689 70.692H234.237C234.345 70.692 234.435 70.728 234.507 70.8C234.591 70.86 234.633 70.938 234.633 71.034C234.633 71.322 234.459 71.664 234.111 72.06C233.775 72.444 233.289 72.78 232.653 73.068C232.017 73.356 231.279 73.5 230.439 73.5ZM232.437 67.83V67.776C232.437 67.068 232.257 66.498 231.897 66.066C231.549 65.634 231.063 65.418 230.439 65.418C229.815 65.418 229.329 65.634 228.981 66.066C228.633 66.498 228.459 67.068 228.459 67.776V67.83H232.437Z" fill="black"/>
<path d="M237.227 73.32C237.107 73.32 237.005 73.278 236.921 73.194C236.837 73.11 236.795 73.008 236.795 72.888V64.392C236.795 64.272 236.837 64.17 236.921 64.086C237.005 64.002 237.107 63.96 237.227 63.96H238.703C238.823 63.96 238.925 64.002 239.009 64.086C239.093 64.17 239.135 64.272 239.135 64.392V65.13C239.843 64.23 240.845 63.78 242.141 63.78C243.245 63.78 244.121 64.146 244.769 64.878C245.417 65.598 245.741 66.582 245.741 67.83V72.888C245.741 73.008 245.699 73.11 245.615 73.194C245.543 73.278 245.441 73.32 245.309 73.32H243.725C243.605 73.32 243.503 73.278 243.419 73.194C243.335 73.11 243.293 73.008 243.293 72.888V67.938C243.293 67.23 243.119 66.684 242.771 66.3C242.435 65.904 241.943 65.706 241.295 65.706C240.659 65.706 240.155 65.904 239.783 66.3C239.423 66.696 239.243 67.242 239.243 67.938V72.888C239.243 73.008 239.201 73.11 239.117 73.194C239.045 73.278 238.943 73.32 238.811 73.32H237.227Z" fill="black"/>
<path d="M250.443 73.32C250.287 73.32 250.161 73.284 250.065 73.212C249.981 73.128 249.909 73.014 249.849 72.87L247.275 64.518C247.263 64.482 247.257 64.428 247.257 64.356C247.257 64.248 247.293 64.158 247.365 64.086C247.449 64.002 247.539 63.96 247.635 63.96H248.967C249.099 63.96 249.207 63.996 249.291 64.068C249.375 64.14 249.429 64.218 249.453 64.302L251.217 70.26L253.089 64.356C253.125 64.248 253.185 64.158 253.269 64.086C253.365 64.002 253.485 63.96 253.629 63.96H254.529C254.673 63.96 254.787 64.002 254.871 64.086C254.967 64.158 255.033 64.248 255.069 64.356L256.941 70.26L258.705 64.302C258.717 64.218 258.765 64.14 258.849 64.068C258.945 63.996 259.053 63.96 259.173 63.96H260.505C260.613 63.96 260.703 64.002 260.775 64.086C260.859 64.158 260.901 64.248 260.901 64.356L260.865 64.518L258.291 72.87C258.243 73.014 258.171 73.128 258.075 73.212C257.991 73.284 257.871 73.32 257.715 73.32H256.545C256.233 73.32 256.035 73.17 255.951 72.87L254.079 67.182L252.207 72.87C252.111 73.17 251.907 73.32 251.595 73.32H250.443Z" fill="black"/>
<path d="M263.013 62.412C262.893 62.412 262.791 62.37 262.707 62.286C262.623 62.202 262.581 62.1 262.581 61.98V60.684C262.581 60.564 262.623 60.462 262.707 60.378C262.791 60.294 262.893 60.252 263.013 60.252H264.651C264.771 60.252 264.873 60.294 264.957 60.378C265.053 60.462 265.101 60.564 265.101 60.684V61.98C265.101 62.1 265.059 62.202 264.975 62.286C264.891 62.37 264.783 62.412 264.651 62.412H263.013ZM263.085 73.32C262.965 73.32 262.863 73.278 262.779 73.194C262.695 73.11 262.653 73.008 262.653 72.888V64.392C262.653 64.272 262.695 64.17 262.779 64.086C262.863 64.002 262.965 63.96 263.085 63.96H264.579C264.711 63.96 264.813 64.002 264.885 64.086C264.969 64.158 265.011 64.26 265.011 64.392V72.888C265.011 73.008 264.969 73.11 264.885 73.194C264.813 73.278 264.711 73.32 264.579 73.32H263.085Z" fill="black"/>
<path d="M267.831 73.32C267.711 73.32 267.609 73.278 267.525 73.194C267.441 73.11 267.399 73.008 267.399 72.888V64.41C267.399 64.29 267.441 64.188 267.525 64.104C267.609 64.008 267.711 63.96 267.831 63.96H269.289C269.421 63.96 269.529 64.002 269.613 64.086C269.697 64.17 269.739 64.278 269.739 64.41V65.148C270.027 64.764 270.387 64.47 270.819 64.266C271.263 64.062 271.767 63.96 272.331 63.96H273.069C273.201 63.96 273.303 64.002 273.375 64.086C273.459 64.158 273.501 64.26 273.501 64.392V65.688C273.501 65.808 273.459 65.91 273.375 65.994C273.303 66.078 273.201 66.12 273.069 66.12H271.665C271.101 66.12 270.657 66.282 270.333 66.606C270.009 66.93 269.847 67.374 269.847 67.938V72.888C269.847 73.008 269.805 73.11 269.721 73.194C269.637 73.278 269.529 73.32 269.397 73.32H267.831Z" fill="black"/>
<path d="M279.135 73.32C278.043 73.32 277.221 73.038 276.669 72.474C276.129 71.898 275.859 71.058 275.859 69.954V65.868H274.437C274.317 65.868 274.215 65.826 274.131 65.742C274.047 65.646 274.005 65.538 274.005 65.418V64.392C274.005 64.272 274.047 64.17 274.131 64.086C274.215 64.002 274.317 63.96 274.437 63.96H275.859V60.972C275.859 60.84 275.901 60.738 275.985 60.666C276.069 60.582 276.171 60.54 276.291 60.54H277.749C277.881 60.54 277.983 60.582 278.055 60.666C278.139 60.738 278.181 60.84 278.181 60.972V63.96H280.431C280.563 63.96 280.665 64.002 280.737 64.086C280.821 64.158 280.863 64.26 280.863 64.392V65.418C280.863 65.55 280.821 65.658 280.737 65.742C280.653 65.826 280.551 65.868 280.431 65.868H278.181V69.774C278.181 70.29 278.271 70.68 278.451 70.944C278.631 71.208 278.931 71.34 279.351 71.34H280.593C280.713 71.34 280.815 71.382 280.899 71.466C280.983 71.55 281.025 71.652 281.025 71.772V72.888C281.025 73.008 280.983 73.11 280.899 73.194C280.827 73.278 280.725 73.32 280.593 73.32H279.135Z" fill="black"/>
<path d="M286.167 73.5C285.267 73.5 284.511 73.368 283.899 73.104C283.287 72.828 282.831 72.51 282.531 72.15C282.243 71.778 282.099 71.46 282.099 71.196C282.099 71.076 282.141 70.98 282.225 70.908C282.309 70.836 282.405 70.8 282.513 70.8H283.935C284.043 70.8 284.133 70.842 284.205 70.926C284.253 70.962 284.379 71.07 284.583 71.25C284.787 71.442 285.027 71.592 285.303 71.7C285.579 71.808 285.885 71.862 286.221 71.862C286.701 71.862 287.097 71.766 287.409 71.574C287.721 71.382 287.877 71.118 287.877 70.782C287.877 70.53 287.805 70.326 287.661 70.17C287.529 70.014 287.283 69.876 286.923 69.756C286.563 69.624 286.029 69.486 285.321 69.342C284.301 69.126 283.545 68.796 283.053 68.352C282.573 67.908 282.333 67.32 282.333 66.588C282.333 66.108 282.477 65.658 282.765 65.238C283.053 64.806 283.479 64.458 284.043 64.194C284.619 63.918 285.303 63.78 286.095 63.78C286.899 63.78 287.595 63.912 288.183 64.176C288.771 64.428 289.215 64.734 289.515 65.094C289.827 65.442 289.983 65.754 289.983 66.03C289.983 66.138 289.941 66.234 289.857 66.318C289.785 66.39 289.695 66.426 289.587 66.426H288.255C288.159 66.426 288.057 66.384 287.949 66.3C287.865 66.24 287.733 66.126 287.553 65.958C287.373 65.79 287.163 65.658 286.923 65.562C286.683 65.466 286.401 65.418 286.077 65.418C285.633 65.418 285.285 65.514 285.033 65.706C284.793 65.898 284.673 66.15 284.673 66.462C284.673 66.69 284.733 66.876 284.853 67.02C284.973 67.164 285.207 67.302 285.555 67.434C285.903 67.566 286.425 67.698 287.121 67.83C288.273 68.058 289.095 68.412 289.587 68.892C290.091 69.372 290.343 69.96 290.343 70.656C290.343 71.496 289.977 72.18 289.245 72.708C288.513 73.236 287.487 73.5 286.167 73.5Z" fill="black"/>
<path d="M296.251 73.5C294.931 73.5 293.875 73.134 293.083 72.402C292.303 71.67 291.889 70.656 291.841 69.36L291.823 68.64L291.841 67.92C291.889 66.624 292.303 65.61 293.083 64.878C293.875 64.146 294.931 63.78 296.251 63.78C297.187 63.78 297.979 63.948 298.627 64.284C299.287 64.62 299.773 65.034 300.085 65.526C300.409 66.006 300.583 66.462 300.607 66.894C300.619 67.014 300.577 67.116 300.481 67.2C300.397 67.284 300.295 67.326 300.175 67.326H298.591C298.471 67.326 298.375 67.302 298.303 67.254C298.243 67.194 298.183 67.098 298.123 66.966C297.943 66.498 297.703 66.162 297.403 65.958C297.115 65.754 296.743 65.652 296.287 65.652C295.675 65.652 295.195 65.85 294.847 66.246C294.499 66.63 294.313 67.218 294.289 68.01L294.271 68.676L294.289 69.27C294.337 70.842 295.003 71.628 296.287 71.628C296.755 71.628 297.133 71.526 297.421 71.322C297.709 71.118 297.943 70.782 298.123 70.314C298.183 70.182 298.243 70.092 298.303 70.044C298.375 69.984 298.471 69.954 298.591 69.954H300.175C300.295 69.954 300.397 69.996 300.481 70.08C300.577 70.164 300.619 70.266 300.607 70.386C300.583 70.806 300.415 71.256 300.103 71.736C299.791 72.216 299.311 72.63 298.663 72.978C298.015 73.326 297.211 73.5 296.251 73.5Z" fill="black"/>
<path d="M302.935 73.32C302.815 73.32 302.713 73.278 302.629 73.194C302.545 73.11 302.503 73.008 302.503 72.888V60.972C302.503 60.84 302.545 60.738 302.629 60.666C302.713 60.582 302.815 60.54 302.935 60.54H304.537C304.669 60.54 304.771 60.582 304.843 60.666C304.927 60.738 304.969 60.84 304.969 60.972V65.076C305.689 64.212 306.661 63.78 307.885 63.78C308.989 63.78 309.871 64.146 310.531 64.878C311.191 65.598 311.521 66.582 311.521 67.83V72.888C311.521 73.008 311.479 73.11 311.395 73.194C311.323 73.278 311.221 73.32 311.089 73.32H309.469C309.349 73.32 309.247 73.278 309.163 73.194C309.079 73.11 309.037 73.008 309.037 72.888V67.938C309.037 67.23 308.863 66.684 308.515 66.3C308.179 65.904 307.687 65.706 307.039 65.706C306.403 65.706 305.899 65.904 305.527 66.3C305.155 66.696 304.969 67.242 304.969 67.938V72.888C304.969 73.008 304.927 73.11 304.843 73.194C304.771 73.278 304.669 73.32 304.537 73.32H302.935Z" fill="black"/>
<path d="M316.523 73.5C315.911 73.5 315.347 73.38 314.831 73.14C314.327 72.888 313.925 72.552 313.625 72.132C313.337 71.712 313.193 71.25 313.193 70.746C313.193 69.93 313.523 69.27 314.183 68.766C314.843 68.262 315.749 67.92 316.901 67.74L319.367 67.38V67.002C319.367 66.474 319.235 66.078 318.971 65.814C318.707 65.55 318.281 65.418 317.693 65.418C317.297 65.418 316.973 65.496 316.721 65.652C316.481 65.796 316.289 65.94 316.145 66.084C316.001 66.24 315.905 66.342 315.857 66.39C315.809 66.534 315.719 66.606 315.587 66.606H314.201C314.093 66.606 313.997 66.57 313.913 66.498C313.841 66.426 313.805 66.33 313.805 66.21C313.817 65.91 313.961 65.568 314.237 65.184C314.525 64.8 314.963 64.47 315.551 64.194C316.139 63.918 316.859 63.78 317.711 63.78C319.127 63.78 320.159 64.098 320.807 64.734C321.455 65.37 321.779 66.204 321.779 67.236V72.888C321.779 73.008 321.737 73.11 321.653 73.194C321.581 73.278 321.479 73.32 321.347 73.32H319.889C319.769 73.32 319.667 73.278 319.583 73.194C319.499 73.11 319.457 73.008 319.457 72.888V72.186C319.193 72.57 318.815 72.888 318.323 73.14C317.843 73.38 317.243 73.5 316.523 73.5ZM317.135 71.79C317.795 71.79 318.335 71.574 318.755 71.142C319.175 70.71 319.385 70.08 319.385 69.252V68.874L317.585 69.162C316.889 69.27 316.361 69.444 316.001 69.684C315.653 69.924 315.479 70.218 315.479 70.566C315.479 70.95 315.641 71.25 315.965 71.466C316.289 71.682 316.679 71.79 317.135 71.79Z" fill="black"/>
<path d="M325.44 73.32C325.32 73.32 325.218 73.278 325.134 73.194C325.05 73.11 325.008 73.008 325.008 72.888V65.868H323.55C323.43 65.868 323.328 65.826 323.244 65.742C323.16 65.646 323.118 65.538 323.118 65.418V64.392C323.118 64.272 323.16 64.17 323.244 64.086C323.328 64.002 323.43 63.96 323.55 63.96H325.008V63.222C325.008 61.074 326.184 60 328.536 60H329.76C329.892 60 329.994 60.042 330.066 60.126C330.15 60.198 330.192 60.3 330.192 60.432V61.458C330.192 61.59 330.15 61.698 330.066 61.782C329.982 61.866 329.88 61.908 329.76 61.908H328.608C328.14 61.908 327.81 62.022 327.618 62.25C327.438 62.478 327.348 62.832 327.348 63.312V63.96H329.58C329.712 63.96 329.814 64.002 329.886 64.086C329.97 64.158 330.012 64.26 330.012 64.392V65.418C330.012 65.55 329.97 65.658 329.886 65.742C329.802 65.826 329.7 65.868 329.58 65.868H327.348V72.888C327.348 73.008 327.306 73.11 327.222 73.194C327.138 73.278 327.036 73.32 326.916 73.32H325.44Z" fill="black"/>
<path d="M335.683 73.32C334.591 73.32 333.769 73.038 333.217 72.474C332.677 71.898 332.407 71.058 332.407 69.954V65.868H330.985C330.865 65.868 330.763 65.826 330.679 65.742C330.595 65.646 330.553 65.538 330.553 65.418V64.392C330.553 64.272 330.595 64.17 330.679 64.086C330.763 64.002 330.865 63.96 330.985 63.96H332.407V60.972C332.407 60.84 332.449 60.738 332.533 60.666C332.617 60.582 332.719 60.54 332.839 60.54H334.297C334.429 60.54 334.531 60.582 334.603 60.666C334.687 60.738 334.729 60.84 334.729 60.972V63.96H336.979C337.111 63.96 337.213 64.002 337.285 64.086C337.369 64.158 337.411 64.26 337.411 64.392V65.418C337.411 65.55 337.369 65.658 337.285 65.742C337.201 65.826 337.099 65.868 336.979 65.868H334.729V69.774C334.729 70.29 334.819 70.68 334.999 70.944C335.179 71.208 335.479 71.34 335.899 71.34H337.141C337.261 71.34 337.363 71.382 337.447 71.466C337.531 71.55 337.573 71.652 337.573 71.772V72.888C337.573 73.008 337.531 73.11 337.447 73.194C337.375 73.278 337.273 73.32 337.141 73.32H335.683Z" fill="black"/>
<rect x="139.408" y="11.32" width="3" height="20" fill="#293064"/>
<rect x="139.408" y="32.32" width="3" height="20" fill="#3A4EA9"/>
<rect x="139.408" y="53.32" width="3" height="20" fill="#4C70C0"/>
</svg>
